<svg width="286" height="286" viewBox="0 0 286 286" fill="none" xmlns="http://www.w3.org/2000/svg">
<g clip-path="url(#clip0)">
<path d="M185.843 30.5477C185.843 30.5477 173.784 68.4202 172.802 71.5465C172.444 68.3309 163.602 0.356934 163.602 0.356934C143.058 0.356934 132.071 15.0057 126.265 30.4584C126.265 30.4584 111.616 68.4202 110.366 71.6358C110.276 68.6882 108.133 30.905 108.133 30.905C106.882 11.9688 89.5538 0.446255 75.5303 0.446255L92.5014 103.434C114.028 103.345 125.64 88.7856 131.714 73.3329C131.714 73.3329 144.665 39.8372 145.201 38.3187C145.291 39.7479 154.491 103.434 154.491 103.434C176.107 103.434 187.719 89.7681 193.971 74.8514L224.251 0.446255C202.903 0.446255 191.649 15.0057 185.843 30.5477Z" fill="url(#paint0_linear)"/>
<path d="M31.1371 100.397C31.1371 100.397 69.0095 112.456 72.1358 113.438C68.9202 113.796 0.946289 122.639 0.946289 122.639C0.946289 143.183 15.5951 154.169 31.0478 159.975C31.0478 159.975 69.0096 174.624 72.2251 175.874C69.2775 175.964 31.4944 178.107 31.4944 178.107C12.5581 179.358 1.03561 196.686 1.03561 210.71L104.024 193.739C103.934 172.212 89.3749 160.6 73.9222 154.526C73.9222 154.526 40.4266 141.575 38.9081 141.039C40.3372 140.95 104.024 131.749 104.024 131.749C104.024 110.133 90.3575 98.5217 75.4407 92.2691L1.03561 61.989C1.03561 83.3369 15.5951 94.5915 31.1371 100.397Z" fill="url(#paint1_linear)"/>
<path d="M100.987 255.103C100.987 255.103 113.045 217.23 114.028 214.104C114.385 217.32 123.228 285.294 123.228 285.294C143.772 285.294 154.758 270.645 160.564 255.192C160.564 255.192 175.213 217.23 176.464 214.015C176.553 216.963 178.697 254.746 178.697 254.746C179.947 273.682 197.276 285.204 211.299 285.204L194.328 182.216C172.801 182.306 161.189 196.865 155.116 212.318C155.116 212.318 142.164 245.813 141.628 247.332C141.539 245.903 132.339 182.216 132.339 182.216C110.723 182.216 99.1108 195.883 92.8582 210.799L62.5781 285.204C83.9261 285.204 95.1806 270.645 100.987 255.103Z" fill="url(#paint2_linear)"/>
<path d="M255.692 185.253C255.692 185.253 217.82 173.195 214.694 172.212C217.909 171.855 285.883 163.012 285.883 163.012C285.883 142.468 271.234 131.481 255.782 125.675C255.782 125.675 217.82 111.027 214.604 109.776C217.552 109.687 255.335 107.543 255.335 107.543C274.271 106.293 285.794 88.9642 285.794 74.9407L182.806 91.9118C182.895 113.438 197.454 125.05 212.907 131.124C212.907 131.124 246.403 144.076 247.921 144.612C246.492 144.701 182.806 153.901 182.806 153.901C182.806 175.517 196.472 187.129 211.389 193.381L285.794 223.662C285.794 202.314 271.234 191.059 255.692 185.253Z" fill="url(#paint3_linear)"/>
</g>
<defs>
<linearGradient id="paint0_linear" x1="75.6309" y1="0.356939" x2="211.605" y2="145.667" gradientUnits="userSpaceOnUse">
<stop stop-color="#F5DB7C"/>
<stop offset="0.505208" stop-color="#B5863E"/>
<stop offset="1" stop-color="#EDCE7D"/>
</linearGradient>
<linearGradient id="paint1_linear" x1="1.01607" y1="61.989" x2="160.782" y2="144.006" gradientUnits="userSpaceOnUse">
<stop stop-color="#F5DB7C"/>
<stop offset="0.505208" stop-color="#B5863E"/>
<stop offset="1" stop-color="#EDCE7D"/>
</linearGradient>
<linearGradient id="paint2_linear" x1="62.6788" y1="182.216" x2="198.653" y2="327.526" gradientUnits="userSpaceOnUse">
<stop stop-color="#F5DB7C"/>
<stop offset="0.505208" stop-color="#B5863E"/>
<stop offset="1" stop-color="#EDCE7D"/>
</linearGradient>
<linearGradient id="paint3_linear" x1="182.875" y1="74.9407" x2="342.641" y2="156.958" gradientUnits="userSpaceOnUse">
<stop stop-color="#F5DB7C"/>
<stop offset="0.505208" stop-color="#B5863E"/>
<stop offset="1" stop-color="#EDCE7D"/>
</linearGradient>
<clipPath id="clip0">
<rect width="284.937" height="284.937" fill="white" transform="translate(0.946289 0.356934)"/>
</clipPath>
</defs>
</svg>