<?xml version="1.0" encoding="utf-8"?>
<!-- Generator: Adobe Illustrator 24.2.0, SVG Export Plug-In . SVG Version: 6.00 Build 0)  -->
<svg version="1.1" id="Layer_1" xmlns="http://www.w3.org/2000/svg" xmlns:xlink="http://www.w3.org/1999/xlink" x="0px" y="0px"
	 viewBox="0 0 1000 1000" style="enable-background:new 0 0 1000 1000;" xml:space="preserve">
<style type="text/css">
	.st0{fill:#6359A6;}
	.st1{fill:#2E254F;}
	.st2{fill:#6762A9;}
	.st3{fill:url(#SVGID_1_);}
	.st4{fill:#BDBEC0;}
	.st5{fill:#FFFAFC;}
	.st6{fill:#A49BC5;}
	.st7{fill:#85989A;}
	.st8{fill:#A498A4;}
	.st9{fill:url(#SVGID_2_);}
	.st10{fill:#317037;}
</style>
<g>
	<path class="st0" d="M500,96.5c222.3,0,403.5,181.3,403.5,403.5c0,222.2-181.3,403.5-403.5,403.5S96.5,722.2,96.5,500
		C96.5,277.7,277.7,96.5,500,96.5L500,96.5z"/>
	<path class="st1" d="M500,124.5c206.8,0,375.5,168.7,375.5,375.5c0,206.8-168.7,375.5-375.5,375.5
		c-206.8,0-375.5-168.7-375.5-375.5C124.5,293.2,293.2,124.5,500,124.5L500,124.5z"/>
	<path class="st1" d="M500,126.2c205.9,0,373.8,167.9,373.8,373.8c0,205.9-167.9,373.8-373.8,373.8S126.2,705.9,126.2,500
		C126.2,294.1,294.1,126.2,500,126.2L500,126.2z"/>
	<path class="st2" d="M500,235.8c145.5,0,264.2,118.7,264.2,264.2S645.5,764.2,500,764.2S235.8,645.5,235.8,500
		S354.5,235.8,500,235.8z M500,214.8c157.1,0,285.2,128.1,285.2,285.2c0,157.1-128.1,285.2-285.2,285.2
		c-157.1,0-285.2-128.1-285.2-285.2C214.8,342.9,342.9,214.8,500,214.8z"/>
	
		<radialGradient id="SVGID_1_" cx="-1585.4055" cy="342.8082" r="3.6703" gradientTransform="matrix(71.9893 0 0 -71.9893 114632.1641 25178.5098)" gradientUnits="userSpaceOnUse">
		<stop  offset="0" style="stop-color:#948FAF"/>
		<stop  offset="0.23" style="stop-color:#918CAD"/>
		<stop  offset="0.62" style="stop-color:#655F8A"/>
		<stop  offset="1" style="stop-color:#48426B"/>
	</radialGradient>
	<circle class="st3" cx="500" cy="500" r="264.2"/>
	<path class="st4" d="M210.8,300.4l24.7,24.1l-4.6,8l-20.6-5.7l15.3,14.8l-4.6,8l-33.2-9.4l4.4-7.6l21.7,7.2l-16.6-16.1l4.2-7.2
		l22.1,6.6l-17-15.4L210.8,300.4L210.8,300.4z M269.3,282.5l-5.5,6.3l-11.2-9.7l-7.5,8.6l11.2,9.7l-5.5,6.3l-25.2-21.9l5.5-6.3
		l9.2,8l7.5-8.6l-9.2-8l5.5-6.3L269.3,282.5z M295.6,235.9c3.5,4.1,5.1,8.3,4.9,12.6s-2.3,8-6.1,11.2c-3.9,3.2-7.9,4.6-12.1,4
		c-4.2-0.6-8-2.9-11.5-7c-3.5-4.1-5.1-8.3-4.9-12.5c0.2-4.2,2.2-8,6.1-11.2c3.9-3.2,7.9-4.6,12.1-4.1
		C288.3,229.4,292.1,231.8,295.6,235.9L295.6,235.9z M288.9,241.5c-1.1-1.3-2.3-2.5-3.7-3.5c-1.1-0.7-2.2-1.3-3.5-1.6
		c-1-0.2-2.1-0.2-3.1,0.1c-0.9,0.3-1.8,0.7-2.5,1.4c-0.7,0.6-1.4,1.4-1.8,2.2c-0.4,1-0.6,2-0.6,3.1c0,1.1,0.3,2.4,0.9,3.7
		c0.6,1.4,1.5,2.8,2.8,4.4c1.3,1.6,2.6,2.8,3.8,3.5c1.2,0.8,2.3,1.3,3.5,1.5c1.1,0.2,2.2,0.2,3.1,0c1-0.3,1.8-0.7,2.6-1.4
		c0.8-0.6,1.4-1.4,1.8-2.4c0.4-0.9,0.6-2,0.6-3.1c-0.1-1.3-0.4-2.5-0.9-3.7C291.2,244.5,290.3,243.1,288.9,241.5z M366.7,174
		l7.6,33.6l-8.2,4.2l-14.2-16l4.8,20.8l-8.2,4.2l-22.7-26l7.8-4l14.3,17.9l-5.2-22.5l7.4-3.8l14.9,17.6l-5.9-22.2L366.7,174
		L366.7,174z M394.4,199.3l2.3-35.2l8.9-2.4L425,191l-8.4,2.2l-3.8-6.1l-10.1,2.7l-0.3,7.2L394.4,199.3L394.4,199.3z M409.6,181.8
		l-6.1-9.8l-0.4,11.5L409.6,181.8z M469.3,183.3l-8,1l-15.6-21.6l2.8,23.1l-7.6,0.9l-4.1-33.2l10.2-1.3l12.9,17.7l-2.3-19l7.6-0.9
		L469.3,183.3L469.3,183.3z M495.1,181.6l-0.5-27.1l-9.9,0.2l-0.1-6.4l28.2-0.5l0.1,6.4l-9.9,0.2l0.5,27.1L495.1,181.6z
		 M539.8,184.5c-2.3-0.2-4.5-0.8-6.6-1.6c-1.8-0.7-3.5-1.5-5.1-2.5l1-7.9l0.8,0.1c1.5,1.6,3.2,2.9,5.1,3.9c1.9,1,3.8,1.6,5.7,1.8
		c0.5,0.1,1.1,0.1,1.9,0.1c0.8,0,1.4-0.1,1.9-0.3c0.6-0.2,1.1-0.5,1.6-0.9c0.5-0.4,0.8-1.1,0.8-1.7c0.1-0.8-0.2-1.6-0.7-2.1
		c-0.6-0.6-1.4-1.1-2.2-1.4c-1.1-0.4-2.3-0.9-3.5-1.3c-1.3-0.4-2.4-0.9-3.5-1.4c-2.5-1.2-4.2-2.7-5.1-4.3c-0.9-1.7-1.2-3.6-1-6
		c0.4-3.1,2-5.5,4.9-7.1c2.9-1.6,6.3-2.2,10.2-1.7c2,0.2,3.9,0.7,5.8,1.3c1.9,0.6,3.6,1.4,5.1,2.3l-0.9,7.6l-0.7-0.1
		c-1.2-1.3-2.6-2.4-4.2-3.2c-1.6-0.9-3.5-1.5-5.3-1.8c-0.7-0.1-1.4-0.1-2-0.1c-0.6,0.1-1.3,0.2-1.9,0.4c-0.6,0.2-1.1,0.5-1.5,0.9
		c-0.4,0.4-0.7,0.9-0.8,1.5c-0.1,0.8,0.1,1.6,0.7,2.1c0.5,0.6,1.6,1.2,3.3,1.8l3.1,1.1c1,0.4,2.1,0.8,3.2,1.4c2.2,1.1,3.8,2.4,4.7,4
		c0.9,1.5,1.3,3.5,1,5.8c-0.4,3.3-2,5.8-4.9,7.5C547.9,184.4,544.2,185,539.8,184.5L539.8,184.5z M603.6,198.1l8.4-25.7l-9.4-3.1
		l2-6.1l26.8,8.7l-2,6.1l-9.4-3l-8.4,25.7L603.6,198.1L603.6,198.1z M670.2,209.4c-2.5,4.8-5.7,8-9.7,9.4c-4,1.4-8.2,1-12.7-1.3
		c-4.5-2.3-7.3-5.5-8.5-9.6c-1.1-4.1-0.5-8.5,1.9-13.3c2.4-4.8,5.7-7.9,9.6-9.4c4-1.5,8.2-1.1,12.7,1.2c4.5,2.3,7.3,5.5,8.5,9.6
		C673.3,200.1,672.7,204.6,670.2,209.4L670.2,209.4z M662.5,205.4c0.9-1.8,1.5-3.4,1.8-4.8c0.3-1.4,0.3-2.7,0.1-3.8
		c-0.2-1-0.6-2-1.3-2.8c-0.6-0.8-1.4-1.4-2.2-1.8c-0.9-0.4-1.8-0.7-2.8-0.8c-1.1,0-2.1,0.2-3.1,0.6c-1.2,0.6-2.2,1.4-3,2.3
		c-1.2,1.3-2.1,2.7-2.9,4.3c-0.9,1.8-1.5,3.4-1.8,4.8c-0.3,1.2-0.3,2.5-0.1,3.8c0.2,1.1,0.6,2.1,1.3,2.9c0.6,0.8,1.4,1.4,2.3,1.8
		c0.9,0.4,1.8,0.7,2.9,0.7c1,0,2-0.2,3-0.7c1.1-0.5,2.1-1.3,3-2.3C660.6,208.7,661.6,207.3,662.5,205.4L662.5,205.4z M726.8,259.1
		c-1.1,1.3-2.2,2.2-3.5,2.8c-1.2,0.5-2.6,0.8-4,0.8c-1.6,0-3.1-0.4-4.5-1.1c-1.4-0.6-3-1.7-4.8-3.2l-10.3-8.6l21.5-25.6l9.1,7.6
		c1.9,1.6,3.2,2.8,4.1,3.8c0.8,1,1.5,2,2,3.2c0.5,1.3,0.6,2.5,0.4,3.7c-0.3,1.3-0.9,2.5-1.7,3.4c-1,1.2-2.3,2.1-3.7,2.5
		c-1.4,0.5-2.9,0.4-4.4,0l-0.1,0.1c1.3,1.7,2,3.4,2.1,5.2C728.9,255.6,728.2,257.4,726.8,259.1L726.8,259.1z M727.4,241.7
		c0.4-0.4,0.6-1,0.7-1.5c0.2-0.6,0.1-1.2-0.2-1.8c-0.3-0.6-0.7-1.1-1.3-1.6c-0.8-0.7-1.7-1.5-2.6-2.2l-0.4-0.4l-4.5,5.4l0.8,0.7
		c1.1,0.9,1.9,1.6,2.4,1.9c0.5,0.3,1,0.6,1.7,0.8c0.6,0.2,1.3,0.2,1.9-0.1C726.4,242.6,726.9,242.2,727.4,241.7L727.4,241.7z
		 M720.2,253.4c0.7-0.8,1-1.5,1.1-2.3c0-0.8-0.2-1.6-0.6-2.2c-0.4-0.6-0.8-1.1-1.4-1.6c-0.9-0.8-1.8-1.6-2.7-2.3l-1.2-1l-5.4,6.4
		l0.3,0.3c1.7,1.4,2.8,2.4,3.5,2.9c0.7,0.5,1.4,0.9,2.4,1.2c0.7,0.2,1.5,0.2,2.2,0C719.2,254.5,719.8,254,720.2,253.4z M732.7,279.1
		l25.2-21.9l14.8,17.1l-4.8,4.2l-9.4-10.8l-4.4,3.9l8.6,9.9l-4.8,4.2l-8.6-9.9l-6.4,5.5l9.4,10.8l-4.8,4.2L732.7,279.1L732.7,279.1z
		 M772.6,329.8l34.6-6.9l4.6,7.9l-23.3,26.5l-4.3-7.5l4.9-5.2l-5.2-9.1l-7,1.6L772.6,329.8L772.6,329.8z M793.4,339.9l7.8-8.5
		L790,334L793.4,339.9z"/>
	<path class="st5" d="M208.4,299.2l24.7,24.1l-4.6,8l-20.6-5.7l15.3,14.8l-4.6,8l-33.2-9.4l4.4-7.6l21.7,7.2l-16.6-16.1l4.2-7.2
		l22.1,6.6l-17-15.4L208.4,299.2L208.4,299.2z M266.9,281.3l-5.5,6.3l-11.2-9.7l-7.5,8.6l11.2,9.7l-5.5,6.3l-25.2-21.9l5.5-6.3
		l9.2,8l7.5-8.6l-9.2-8l5.5-6.3L266.9,281.3L266.9,281.3z M293.2,234.7c3.5,4.1,5.1,8.3,4.9,12.6c-0.2,4.2-2.3,8-6.1,11.2
		c-3.9,3.2-7.9,4.6-12.1,4c-4.2-0.6-8-2.9-11.5-7c-3.5-4.1-5.1-8.3-4.9-12.5c0.2-4.2,2.2-8,6.1-11.2c3.9-3.2,7.9-4.6,12.1-4.1
		C285.9,228.2,289.7,230.6,293.2,234.7L293.2,234.7z M286.5,240.3c-1.1-1.3-2.3-2.5-3.7-3.5c-1.1-0.7-2.2-1.3-3.5-1.6
		c-1-0.2-2.1-0.2-3.1,0.1c-1.9,0.5-3.4,1.8-4.3,3.6c-0.4,1-0.6,2-0.6,3.1c0,1.1,0.3,2.4,0.9,3.7c0.6,1.4,1.5,2.8,2.8,4.4
		c1.3,1.6,2.6,2.8,3.8,3.5c1.2,0.8,2.3,1.3,3.5,1.5c1.2,0.2,2.2,0.2,3.1-0.1c1.9-0.5,3.5-1.9,4.3-3.7c0.4-0.9,0.6-1.9,0.6-3.1
		c-0.1-1.3-0.4-2.5-0.9-3.7C288.8,243.3,287.9,241.9,286.5,240.3L286.5,240.3z M364.3,172.8l7.6,33.6l-8.2,4.2l-14.2-16l4.8,20.8
		l-8.2,4.2l-22.7-26l7.8-4l14.3,17.9l-5.2-22.5l7.4-3.8l14.9,17.6l-5.9-22.2L364.3,172.8L364.3,172.8z M391.9,198l2.3-35.2l8.9-2.4
		l19.6,29.4l-8.4,2.2l-3.8-6.1l-10.1,2.7l-0.3,7.1L391.9,198L391.9,198z M407.1,180.6l-6.1-9.8l-0.4,11.5L407.1,180.6z M466.9,182.1
		l-8,1l-15.6-21.6l2.8,23.1l-7.6,0.9l-4.1-33.2l10.2-1.3l12.9,17.7l-2.3-19l7.6-0.9L466.9,182.1z M492.7,180.3l-0.5-27.1l-9.9,0.2
		l-0.1-6.4l28.2-0.5l0.1,6.4l-9.9,0.2l0.5,27.1L492.7,180.3L492.7,180.3z M537.4,183.3c-2.3-0.2-4.5-0.8-6.6-1.6
		c-1.8-0.7-3.5-1.5-5.1-2.5l1-7.9l0.8,0.1c1.5,1.6,3.2,2.9,5.1,3.9c1.9,1,3.8,1.6,5.7,1.9c0.5,0.1,1.1,0.1,1.9,0.1
		c0.8,0,1.4-0.1,1.9-0.3c0.6-0.2,1.1-0.5,1.6-0.9c0.5-0.5,0.8-1.1,0.8-1.7c0.1-0.8-0.2-1.6-0.7-2.1c-0.6-0.6-1.4-1.1-2.2-1.4
		c-1.2-0.5-2.3-0.9-3.5-1.3c-1.2-0.4-2.4-0.9-3.5-1.4c-2.5-1.2-4.2-2.7-5.1-4.3c-0.9-1.7-1.3-3.7-1-6c0.4-3.1,2-5.5,4.9-7.1
		c2.9-1.6,6.3-2.2,10.2-1.7c2,0.2,3.9,0.7,5.8,1.3c1.9,0.6,3.6,1.4,5.1,2.3l-0.9,7.6l-0.7-0.1c-1.2-1.3-2.6-2.4-4.2-3.2
		c-1.7-0.9-3.5-1.5-5.3-1.8c-0.7-0.1-1.4-0.1-2-0.1c-0.6,0-1.3,0.2-1.9,0.4c-0.6,0.2-1.1,0.5-1.5,0.9c-0.4,0.4-0.7,0.9-0.8,1.5
		c-0.1,0.8,0.1,1.6,0.7,2.1c0.5,0.6,1.6,1.2,3.3,1.8l3.1,1.1c1,0.4,2.1,0.8,3.2,1.4c2.2,1.1,3.8,2.4,4.7,4c0.9,1.5,1.3,3.5,1,5.8
		c-0.4,3.3-2,5.8-4.9,7.5C545.4,183.2,541.8,183.8,537.4,183.3L537.4,183.3z M601.2,196.9l8.4-25.7l-9.4-3.1l2-6.1l26.8,8.7l-2,6.1
		l-9.4-3.1l-8.4,25.7L601.2,196.9L601.2,196.9z M667.8,208.2c-2.5,4.8-5.7,8-9.7,9.4c-4,1.4-8.2,1-12.7-1.3
		c-4.5-2.3-7.3-5.5-8.4-9.6c-1.1-4.1-0.5-8.5,1.9-13.3c2.4-4.8,5.7-7.9,9.6-9.4c4-1.5,8.2-1.1,12.7,1.2c4.5,2.3,7.3,5.5,8.5,9.6
		C670.9,198.9,670.3,203.4,667.8,208.2L667.8,208.2z M660.1,204.2c0.9-1.8,1.5-3.4,1.8-4.8c0.3-1.4,0.3-2.7,0.1-3.8
		c-0.2-1-0.6-2-1.3-2.9c-1.2-1.5-3.1-2.5-5-2.6c-1,0-2.1,0.2-3,0.6c-1,0.5-2,1.2-3.1,2.3c-1,1.1-2,2.5-2.9,4.3
		c-0.9,1.8-1.5,3.4-1.8,4.8c-0.3,1.4-0.3,2.7-0.1,3.8c0.2,1.1,0.6,2.1,1.3,2.9c0.6,0.8,1.4,1.4,2.2,1.8c0.9,0.4,1.8,0.7,2.8,0.7
		c1,0,2-0.2,3-0.7c1.1-0.5,2.1-1.3,3-2.3C658.2,207.5,659.1,206.1,660.1,204.2z M724.4,257.9c-1,1.2-2.2,2.1-3.5,2.8
		c-1.3,0.6-2.6,0.8-4,0.8c-1.6,0-3.1-0.4-4.5-1.1c-1.4-0.6-3-1.7-4.8-3.2l-10.3-8.6l21.5-25.6l9,7.6c1.9,1.6,3.2,2.8,4.1,3.8
		c0.9,0.9,1.5,2,2,3.2c0.5,1.3,0.6,2.5,0.4,3.7c-0.3,1.3-0.9,2.5-1.7,3.4c-1,1.3-2.3,2.1-3.7,2.5c-1.4,0.5-3,0.4-4.4,0l-0.1,0.1
		c1.3,1.7,2,3.4,2.1,5.2C726.5,254.4,725.8,256.1,724.4,257.9z M724.9,240.4c0.4-0.5,0.6-1,0.8-1.5c0.2-0.6,0.1-1.2-0.2-1.8
		c-0.3-0.6-0.7-1.1-1.2-1.6c-0.8-0.7-1.7-1.5-2.6-2.2l-0.4-0.4l-4.6,5.4l0.8,0.7c1.1,0.9,1.9,1.6,2.3,1.9c0.5,0.4,1.1,0.6,1.7,0.8
		c0.6,0.2,1.3,0.2,1.9-0.1C724,241.4,724.5,241,724.9,240.4L724.9,240.4z M717.8,252.2c0.7-0.8,1-1.5,1.1-2.3c0-0.8-0.2-1.6-0.6-2.2
		c-0.4-0.6-0.8-1.2-1.4-1.6c-0.7-0.6-1.6-1.4-2.7-2.3l-1.2-1l-5.4,6.4l0.3,0.3c1.7,1.4,2.8,2.4,3.5,2.9c0.7,0.5,1.4,0.9,2.4,1.2
		c0.7,0.2,1.5,0.2,2.2,0C716.7,253.3,717.3,252.8,717.8,252.2z M730.2,277.9l25.2-21.9l14.8,17.1l-4.8,4.2l-9.4-10.8l-4.4,3.9
		l8.6,9.9l-4.8,4.2l-8.6-9.9l-6.4,5.5l9.4,10.8L745,295L730.2,277.9z M770.2,328.6l34.6-6.9l4.6,7.9l-23.3,26.5l-4.3-7.5l4.9-5.2
		l-5.3-9.1l-7,1.6L770.2,328.6L770.2,328.6z M791,338.7l7.8-8.5l-11.3,2.6L791,338.7z"/>
	<path class="st4" d="M261.4,717.6l-31.6,13.9l-5.7-7.3l13-17l-19.5,8.6l-5.7-7.3l21.1-27.3l5.4,6.9l-14.8,17.4l21.1-9.4l5.1,6.6
		l-14.4,18l20.7-10L261.4,717.6L261.4,717.6z M267.1,770.4l-6-5.8l10.3-10.7l-8.2-7.9l-10.3,10.7l-6-5.8l23.2-24.1l6,5.8l-8.5,8.8
		l8.2,7.9l8.5-8.8l6,5.8L267.1,770.4z M317.1,787.9c-3.2,4.4-6.8,7-11,7.8c-4.2,0.8-8.3-0.3-12.4-3.2c-4.1-3-6.4-6.6-6.9-10.8
		c-0.5-4.2,0.8-8.5,4-12.8c3.2-4.3,6.8-6.9,11-7.8c4.2-0.8,8.3,0.2,12.4,3.2c4.1,3,6.4,6.5,6.9,10.8
		C321.6,779.3,320.3,783.5,317.1,787.9z M310.1,782.8c1.2-1.6,2-3.1,2.5-4.5c0.5-1.4,0.7-2.6,0.7-3.8c0-1.1-0.3-2.1-0.8-3
		c-1-1.7-2.6-2.9-4.5-3.3c-1-0.2-2.1-0.1-3.1,0.2c-1.1,0.3-2.2,0.9-3.4,1.8c-1.2,0.9-2.4,2.2-3.5,3.8c-1.2,1.7-2,3.2-2.5,4.5
		c-0.5,1.4-0.7,2.6-0.7,3.7c0,1.2,0.3,2.2,0.8,3c1,1.7,2.7,2.9,4.6,3.3c1,0.2,2,0.1,3.1-0.2c1.2-0.4,2.3-1,3.3-1.8
		C307.7,785.8,308.8,784.5,310.1,782.8L310.1,782.8z M398.7,809.8l-20.4,27.8l-8.5-3.4l2.8-21.2L360,830.3l-8.6-3.5l4.7-34.2
		l8.1,3.3l-4.1,22.5l13.6-18.7l7.7,3.1l-3.5,22.8l12.9-19L398.7,809.8L398.7,809.8z M399.2,845l19.1-29.7l8.9,2.2l2.9,35.2l-8.4-2.1
		l-0.4-7.1l-10.2-2.5l-3.7,6.1L399.2,845L399.2,845z M421,837.1l-0.6-11.5l-6,9.9L421,837.1L421,837.1z M474.5,859.6l-8-1.1
		l-9.5-24.9l-3.2,23.1l-7.6-1.1l4.7-33.1l10.2,1.4l7.9,20.5l2.7-19l7.6,1.1L474.5,859.6L474.5,859.6z M501.3,860.3l-0.9-27.1
		l-9.9,0.3l-0.2-6.4l28.2-1l0.2,6.4l-9.9,0.3l0.9,27.1L501.3,860.3L501.3,860.3z M546.5,857.9c-2.5,0.4-4.8,0.4-6.8,0.2
		c-1.9-0.2-3.8-0.6-5.6-1.1l-1.1-7.9l0.8-0.1c1.8,1.2,3.8,2,5.9,2.5c2.1,0.5,4.1,0.6,6,0.3c0.5-0.1,1.1-0.2,1.9-0.4
		c0.6-0.2,1.2-0.4,1.8-0.8c0.5-0.3,1-0.7,1.3-1.3c0.3-0.6,0.5-1.2,0.3-1.9c-0.1-0.8-0.6-1.5-1.3-1.9c-0.8-0.4-1.6-0.7-2.5-0.8
		c-1.2-0.1-2.5-0.3-3.7-0.3c-1.3-0.1-2.5-0.2-3.7-0.5c-2.7-0.5-4.7-1.5-6-2.9c-1.3-1.4-2.2-3.2-2.5-5.5c-0.4-3.1,0.5-5.8,2.9-8.1
		c2.4-2.3,5.5-3.7,9.4-4.3c2-0.3,4-0.4,6-0.2c1.9,0.1,3.7,0.4,5.5,0.9l1.1,7.6l-0.7,0.1c-1.5-0.9-3.2-1.6-4.9-2
		c-2.5-0.6-5.1-0.6-7.6,0.1c-0.6,0.2-1.2,0.5-1.7,0.9c-0.5,0.3-0.9,0.7-1.2,1.2c-0.3,0.5-0.4,1.1-0.3,1.6c0.1,0.8,0.5,1.5,1.2,1.9
		c0.7,0.4,1.9,0.7,3.7,0.9c1.2,0.1,2.3,0.2,3.3,0.3c1.1,0.1,2.2,0.3,3.4,0.5c2.4,0.5,4.3,1.4,5.6,2.6c1.3,1.2,2.1,3,2.5,5.3
		c0.5,3.3-0.5,6.1-2.8,8.5C554.3,855.8,550.9,857.3,546.5,857.9L546.5,857.9z M610,843l-9.3-25.4l-9.3,3.4l-2.2-6l26.5-9.6l2.2,6
		l-9.3,3.4l9.3,25.4L610,843L610,843z M662.9,802.7c2.5,4.8,3.1,9.3,1.9,13.4c-1.2,4.1-4,7.2-8.5,9.5c-4.5,2.3-8.7,2.7-12.7,1.2
		c-4-1.5-7.2-4.6-9.6-9.4c-2.4-4.8-3.1-9.2-1.9-13.3c1.1-4.1,4-7.3,8.5-9.6c4.5-2.3,8.7-2.7,12.7-1.2
		C657.3,794.8,660.5,797.9,662.9,802.7L662.9,802.7z M655.2,806.7c-0.8-1.5-1.7-3-2.9-4.3c-0.9-1-1.9-1.7-3-2.3
		c-0.9-0.5-2-0.7-3.1-0.6c-1,0.1-1.9,0.3-2.8,0.7c-0.9,0.5-1.7,1.1-2.2,1.8c-0.6,0.7-1,1.7-1.3,2.8c-0.2,1.1-0.2,2.4,0.1,3.8
		c0.3,1.5,0.9,3.1,1.8,4.9c0.9,1.8,1.9,3.3,2.9,4.3c1,1,2,1.8,3,2.3c1.1,0.5,2.1,0.7,3.1,0.7c1-0.1,1.9-0.3,2.8-0.7
		c0.9-0.5,1.7-1.1,2.3-1.9c0.6-0.8,1-1.8,1.2-2.9c0.2-1.3,0.2-2.5-0.1-3.8C656.7,810.1,656.1,808.5,655.2,806.7L655.2,806.7z
		 M723.3,769.3c1.1,1.3,1.7,2.6,2,4c0.3,1.4,0.3,2.7,0,4c-0.3,1.5-1,3-1.9,4.3c-0.9,1.3-2.3,2.6-4.1,4.1l-10.4,8.4l-21.1-26l9.2-7.4
		c1.9-1.5,3.4-2.6,4.5-3.3s2.3-1.1,3.5-1.3c1.3-0.3,2.6-0.1,3.7,0.3c1.1,0.5,2.2,1.2,3,2.3c1,1.3,1.6,2.7,1.8,4.2
		c0.2,1.5-0.1,3-0.9,4.3l0.1,0.1c1.9-1,3.7-1.3,5.5-1.1C720.2,766.5,721.8,767.5,723.3,769.3L723.3,769.3z M706.3,765.3
		c-0.4-0.4-0.8-0.8-1.4-1c-0.6-0.3-1.2-0.3-1.8-0.1c-0.6,0.1-1.2,0.5-1.8,0.9c-0.9,0.7-1.8,1.4-2.6,2.1l-0.5,0.4l4.5,5.5l0.8-0.7
		c1.1-0.9,1.9-1.6,2.3-1.9c0.4-0.4,0.8-0.9,1.1-1.5c0.3-0.6,0.4-1.2,0.3-1.9C707,766.5,706.7,765.9,706.3,765.3L706.3,765.3z
		 M716.4,774.6c-0.7-0.8-1.3-1.3-2-1.5c-0.7-0.2-1.5-0.1-2.3,0.1c-0.7,0.2-1.3,0.6-1.8,1.1c-0.7,0.5-1.6,1.3-2.8,2.2l-1.2,1l5.3,6.5
		l0.3-0.3c1.7-1.4,2.9-2.4,3.5-2.9c0.6-0.5,1.2-1.2,1.6-2.1c0.4-0.7,0.5-1.4,0.4-2.2C717.3,775.8,716.9,775.1,716.4,774.6
		L716.4,774.6z M742.9,765.3l-23.2-24.1l16.3-15.7l4.4,4.6l-10.3,9.9l4.1,4.2l9.4-9.1l4.4,4.6l-9.5,9.1l5.9,6.1l10.3-9.9l4.4,4.6
		L742.9,765.3L742.9,765.3z M786.8,717.2l-20.9-28.4l5.3-7.5l33.9,9.9l-5,7.1l-6.8-2.2l-6,8.6l4.4,5.6L786.8,717.2L786.8,717.2z
		 M787.2,694.1l-11-3.5l7.1,9.1L787.2,694.1z"/>
	<path class="st5" d="M259,716.4l-31.6,13.9l-5.7-7.3l13-17l-19.5,8.6l-5.7-7.3l21.1-27.3l5.4,6.9l-14.8,17.4l21.1-9.4l5.1,6.6
		l-14.4,18l20.7-10L259,716.4L259,716.4z M264.7,769.2l-6-5.8l10.3-10.7l-8.2-7.9l-10.3,10.7l-6-5.8l23.2-24.1l6,5.8l-8.5,8.8
		l8.2,7.9l8.5-8.8l6,5.8L264.7,769.2L264.7,769.2z M314.6,786.7c-3.2,4.4-6.8,7-11,7.8c-4.2,0.8-8.3-0.3-12.4-3.2
		c-4.1-3-6.4-6.6-6.9-10.8c-0.5-4.2,0.8-8.5,4-12.8c3.2-4.3,6.8-6.9,11-7.8c4.2-0.8,8.3,0.2,12.4,3.2c4.1,3,6.4,6.5,6.9,10.8
		C319.2,778,317.8,782.3,314.6,786.7L314.6,786.7z M307.6,781.6c1.2-1.6,2-3.1,2.5-4.5c0.5-1.4,0.7-2.6,0.7-3.8c0-1.1-0.3-2.1-0.8-3
		c-1-1.7-2.6-2.9-4.5-3.3c-1-0.2-2.1-0.1-3.1,0.2c-1.2,0.4-2.4,1-3.4,1.8c-1.2,0.9-2.4,2.2-3.5,3.8c-1.2,1.7-2,3.2-2.5,4.5
		c-0.4,1.2-0.7,2.5-0.7,3.7c0,1.2,0.3,2.2,0.8,3c0.5,0.9,1.2,1.6,1.9,2.2c0.8,0.6,1.7,1,2.7,1.2c1,0.2,2,0.1,3.1-0.2
		c1.2-0.4,2.3-1,3.3-1.8C305.2,784.6,306.4,783.3,307.6,781.6L307.6,781.6z M396.3,808.6l-20.4,27.8l-8.5-3.4l2.8-21.2L357.6,829
		l-8.6-3.5l4.7-34.2l8.1,3.3l-4.1,22.5l13.6-18.7l7.7,3.1l-3.5,22.8l12.9-19L396.3,808.6L396.3,808.6z M396.8,843.8l19.1-29.7
		l8.9,2.2l2.9,35.2l-8.4-2.1l-0.4-7.1l-10.2-2.5l-3.7,6.1L396.8,843.8L396.8,843.8z M418.5,835.9l-0.6-11.5l-6,9.9L418.5,835.9
		L418.5,835.9z M472.1,858.4l-8-1.1l-9.5-24.9l-3.2,23.1l-7.6-1.1l4.7-33.1l10.2,1.4l7.9,20.5l2.7-19l7.6,1.1L472.1,858.4z
		 M498.8,859.1l-0.9-27.1l-9.9,0.3l-0.2-6.4l28.2-1l0.2,6.4l-9.9,0.3l0.9,27.1L498.8,859.1L498.8,859.1z M544.1,856.7
		c-2.5,0.4-4.8,0.4-6.8,0.2c-1.9-0.2-3.8-0.6-5.6-1.1l-1.1-7.9l0.8-0.1c1.9,1.2,3.8,2,5.9,2.5c2.1,0.5,4.1,0.6,6,0.3
		c0.5-0.1,1.1-0.2,1.9-0.4c0.6-0.2,1.2-0.4,1.8-0.7c0.5-0.3,1-0.8,1.3-1.3c0.3-0.6,0.5-1.2,0.3-1.9c-0.1-0.8-0.6-1.5-1.3-1.9
		c-0.8-0.4-1.6-0.7-2.5-0.8c-1.2-0.2-2.5-0.3-3.7-0.3c-1.3-0.1-2.5-0.2-3.7-0.5c-2.7-0.5-4.7-1.5-6-2.9c-1.3-1.4-2.2-3.2-2.5-5.5
		c-0.4-3.1,0.5-5.8,2.9-8.1c2.4-2.3,5.5-3.7,9.4-4.3c2-0.3,4-0.4,6-0.2c2,0.1,3.8,0.4,5.5,0.9l1.1,7.6l-0.7,0.1
		c-1.5-0.9-3.2-1.6-4.9-2c-2.5-0.7-5.1-0.6-7.6,0.1c-0.6,0.2-1.2,0.5-1.7,0.9c-0.5,0.3-0.9,0.7-1.2,1.3c-0.3,0.5-0.4,1.1-0.3,1.6
		c0.1,0.8,0.5,1.5,1.2,1.9c0.7,0.4,1.9,0.7,3.7,0.9l3.3,0.3c1.1,0.1,2.2,0.3,3.4,0.5c2.4,0.5,4.3,1.4,5.6,2.6c1.3,1.2,2.1,3,2.5,5.3
		c0.5,3.1-0.5,6.3-2.8,8.5C551.9,854.6,548.5,856.1,544.1,856.7L544.1,856.7z M607.6,841.8l-9.3-25.4l-9.3,3.4l-2.2-6l26.5-9.6
		l2.2,6l-9.3,3.4l9.3,25.4L607.6,841.8z M660.5,801.5c2.5,4.8,3.1,9.3,1.9,13.3c-1.2,4.1-4,7.3-8.5,9.5c-4.5,2.3-8.7,2.7-12.7,1.2
		c-4-1.5-7.2-4.6-9.6-9.4c-2.4-4.8-3.1-9.2-1.9-13.3c1.1-4.1,4-7.3,8.5-9.6c4.5-2.3,8.7-2.7,12.7-1.2
		C654.8,793.6,658,796.7,660.5,801.5z M652.8,805.5c-0.9-1.8-1.9-3.2-2.9-4.3c-0.9-1-1.9-1.7-3-2.3c-0.9-0.5-2-0.7-3.1-0.6
		c-1,0.1-1.9,0.3-2.8,0.7c-0.9,0.4-1.6,1-2.2,1.8c-0.6,0.8-1.1,1.8-1.3,2.8c-0.2,1.1-0.2,2.4,0.1,3.8c0.3,1.5,0.9,3.1,1.8,4.9
		c0.9,1.8,1.9,3.2,2.9,4.3c1,1,2,1.8,3,2.3c1.1,0.5,2.1,0.7,3.1,0.7c1-0.1,1.9-0.3,2.8-0.7c0.9-0.4,1.6-1.1,2.3-1.9
		c0.6-0.8,1-1.8,1.2-2.9c0.2-1.2,0.2-2.5-0.1-3.8C654.3,808.9,653.7,807.3,652.8,805.5L652.8,805.5z M720.8,768c1.1,1.3,1.7,2.6,2,4
		c0.3,1.4,0.3,2.7,0,4c-0.3,1.5-1,3-1.9,4.3c-0.9,1.3-2.3,2.6-4.1,4.1l-10.4,8.4l-21.1-26l9.2-7.4c1.9-1.5,3.4-2.6,4.5-3.3
		c1.1-0.7,2.3-1.1,3.5-1.3c1.3-0.3,2.6-0.1,3.7,0.3c1.1,0.5,2.2,1.2,3,2.3c1,1.3,1.6,2.7,1.8,4.2c0.2,1.5-0.1,2.9-0.9,4.3l0.1,0.1
		c1.9-1,3.7-1.3,5.5-1.1C717.8,765.3,719.4,766.3,720.8,768L720.8,768z M703.8,764.1c-0.4-0.4-0.8-0.8-1.4-1
		c-0.6-0.3-1.2-0.3-1.8-0.1c-0.6,0.2-1.2,0.5-1.8,0.9c-0.6,0.5-1.5,1.2-2.6,2.1l-0.5,0.4l4.5,5.5l0.8-0.7c1.1-0.9,1.9-1.6,2.3-1.9
		c0.5-0.4,0.8-0.9,1.1-1.5c0.3-0.6,0.4-1.2,0.3-1.9C704.6,765.2,704.3,764.6,703.8,764.1L703.8,764.1z M714,773.4
		c-0.7-0.8-1.3-1.3-2-1.5c-0.8-0.2-1.6-0.1-2.3,0.1c-0.7,0.2-1.3,0.6-1.8,1.1c-0.7,0.5-1.6,1.3-2.8,2.2l-1.2,1l5.3,6.5l0.3-0.3
		c1.7-1.4,2.8-2.3,3.5-2.9c0.6-0.5,1.2-1.2,1.6-2.1c0.4-0.7,0.5-1.4,0.4-2.2C714.8,774.6,714.5,773.9,714,773.4L714,773.4z
		 M740.5,764.1L717.3,740l16.3-15.7l4.4,4.6l-10.3,9.9l4.1,4.2l9.5-9.1l4.4,4.6l-9.4,9.1l5.9,6.1l10.3-9.9l4.4,4.6L740.5,764.1
		L740.5,764.1z M784.3,716l-20.9-28.4l5.3-7.5l33.9,9.9l-5,7.1l-6.8-2.2l-6,8.6l4.4,5.6L784.3,716L784.3,716z M784.8,692.9l-11-3.5
		l7.1,9.1L784.8,692.9z"/>
	<path class="st6" d="M500,124.2c103.5,0,197.5,42.2,265.6,110.3c68.1,68.1,110.3,162,110.3,265.5v0c0,103.5-42.2,197.5-110.3,265.5
		c-68.1,68.1-162,110.3-265.5,110.3h0c-103.5,0-197.5-42.2-265.5-110.3S124.2,603.5,124.2,500v0c0-103.5,42.2-197.5,110.3-265.5
		C302.5,166.4,396.5,124.2,500,124.2L500,124.2z M500,128.2L500,128.2c-102.4,0-195.3,41.8-262.7,109.1S128.2,397.6,128.2,500v0
		c0,102.4,41.8,195.3,109.1,262.6C304.7,830,397.6,871.8,500,871.8h0c102.4,0,195.3-41.8,262.6-109.1S871.8,602.4,871.8,500v0
		c0-102.4-41.8-195.3-109.1-262.6C695.3,170,602.4,128.2,500,128.2L500,128.2z"/>
	<path class="st7" d="M370.7,218.7L370.7,218.7L370.7,218.7l9-4.1l22.6,28.7l29.2,49.5l28.7,48.6l35.6,68.9l35.7,77.5l0,0l0,0.1l0,0
		l0,0l0,0.1l0,0.1l0,0h0v0l0,0c9.7,21,19.2,42.2,28.4,63.5l8.8,20.4l8.3,19.8l7.6,18.9l39.4,97.6l20.1,71l-12.4,5.7l0,0l0,0
		l-8.9,4.1l-22.6-28.7L571,710.8l-28.7-48.6l-35.6-68.8L471,515.9l0,0l0-0.1l0,0l0,0l0-0.1l0-0.1l0,0v0v0
		c-35.7-77.5-65-149.2-83.3-202.6l-18.7-54.3l-7.1-35.8L370.7,218.7L370.7,218.7L370.7,218.7L370.7,218.7z M372.4,222.4L372.4,222.4
		L372.4,222.4c-6.7,3.2,1.1,37.1,19.1,89.3l18.3,53.2l29.2,71.7l35.6,77.3l0,0l0,0.1l0,0l0,0l0,0.1l0,0.1l0,0v0l0,0v0h0
		c35.7,77.3,71.2,146,99.8,194.5l28.1,47.6l20.7,27.9l6.7-3.1l10.1-4.7l-20.8-68.9l-38.5-95.5l-7.5-18.7l-8.3-19.8l-8.9-20.6
		l-8.9-20.5l-9.5-21.2l-10-21.6l0,0l0-0.1l0,0l0,0l0-0.1l0-0.1l0,0c-35.7-77.3-71.2-146-99.8-194.5l-28-47.6l-20.7-28L372.4,222.4
		L372.4,222.4z M474.7,514.2L474.7,514.2L474.7,514.2L474.7,514.2 M474.7,514.2C474.7,514.2,474.7,514.2,474.7,514.2 M470.9,515.6
		L470.9,515.6"/>
	<path class="st7" d="M475.4,191.1l0.1,0l0,0l0,0h0c1.2-0.1,2.3,0.3,3.4,1l1,0.6l1,0.9l1,1.1l4.3,5.3l4.6,11.7l4.6,17v0l0,0l2,7.2
		l2,8.2l2,9.1l2,9l2,10l2,10.9l10.2,55.4l9.8,76.2l7,84.1l0,0.2l0,0.2l0,0.4h0l7,84.7l2.9,77.2l-1,56.3l-1,57.2l-5.5,36l-9.7,1.1v0
		l-0.3,0l0.1,0l-0.1,0h0l0,0l-0.2,0h0c-9.7,0.5-21.1-34.1-31.5-90.4L485,666.7l-9.9-76.6l-7-84.7v0l0-0.1l0-0.4l0-0.3l0-0.2l0-0.2
		l0-0.4v0v0 M475.8,195.2L475.8,195.2L475.8,195.2L475.8,195.2C475.8,195.2,475.8,195.2,475.8,195.2L475.8,195.2L475.8,195.2
		L475.8,195.2C475.8,195.2,475.8,195.2,475.8,195.2L475.8,195.2z M475.8,195.2L475.8,195.2L475.8,195.2L475.8,195.2L475.8,195.2
		L475.8,195.2L475.8,195.2L475.8,195.2l-7.4,0.8l-4.3,34.5l-1,55.1l-1,56.1l2.9,77.1l7,84.6v0l0,0.1l0,0.4l0,0.3l0,0.2l0,0.2l0,0.4
		l7,84.7l9.9,76.5l10.2,55.1l10,54.2l9.9,33.3l7.4-0.4v0h0v0l0.1,0h-0.1l0,0h0l0,0h0h0l0,0h0v0v0v0h0l7.3-0.8l4.3-34.5l1-55.1
		l1-56.1l-2.9-77.1l-7-84.6l0-0.1l0-0.4l0-0.3l-7-84.1l-9.8-76.1L503.4,284l-2-10.6l-2-9.9l-2-9.2l-2-9l-2-8.2l-2-7.2h0l0,0l0,0
		l-4.5-16.5l-4.3-11.2l-3.9-4.8l-0.7-0.8l-0.6-0.6l-0.6-0.4l-0.4-0.3l-0.4-0.1L475.8,195.2L475.8,195.2z M475.8,195.2 M526.6,808.4
		 M467.9,503.7c-7-84.7-9.9-161.9-8.9-218.2l1-57.2l5.5-36l9.7-1.1v0l0.3,0l-0.1,0h0"/>
	<path class="st7" d="M583.3,201.1L583.3,201.1L583.3,201.1l9.5,2.7l-1.2,36.4l-9.5,56.7l-9.3,55.6l-17,75.6l-22.4,82.2h0l-0.1,0.3
		c0,0.1,0,0.2-0.1,0.2v0l-22.5,82.2L487,666.8l-20.2,52.6l-20.6,53.6l-17.5,32l-9.5-2.5h0l0,0l0,0l0,0l-9.5-2.7l1.2-36.4l9.5-56.7
		l9.3-55.7l17-75.6l22.4-82.2h0l0.1-0.3v0c0,0,0,0,0,0 M582.3,205L582.3,205L582.3,205c-7.2-1.8-23,29.1-42.8,80.6l-20.2,52.5
		l-23.7,73.6l-22.4,82.1h0l-0.1,0.2c0,0,0,0,0,0v0l0,0.1l0-0.1c0,0,0,0.1-0.1,0.2v0l-22.4,82.1l-17,75.5l-9.3,55.5l-9.1,54.4
		l-2.1,34.7l7.1,2.1v0l0,0h0v0c7.1,1.8,23-29.2,42.8-80.6l20.2-52.5l23.7-73.6l22.4-82.1h0c0-0.1,0.1-0.2,0.1-0.3c0,0,0,0,0,0v0l0,0
		l0,0h0c0,0,0-0.1,0.1-0.2v0l22.4-82.1l16.9-75.4l9.3-55.5l9.1-54.4l2.1-34.7L582.3,205L582.3,205z M533.3,510.6
		C533.3,510.6,533.4,510.5,533.3,510.6L533.3,510.6L533.3,510.6L533.3,510.6 M533.3,510.6C533.3,510.6,533.3,510.6,533.3,510.6
		C533.3,510.6,533.3,510.6,533.3,510.6z M533.3,510.6L533.3,510.6L533.3,510.6z M533.3,510.6 M533.3,510.6L533.3,510.6L533.3,510.6
		L533.3,510.6C533.3,510.7,533.3,510.7,533.3,510.6L533.3,510.6L533.3,510.6 M533.3,510.6L533.3,510.6L533.3,510.6z M533.3,510.6
		C533.3,510.6,533.3,510.6,533.3,510.6L533.3,510.6z M533.3,510.6L533.3,510.6L533.3,510.6z M533.3,510.6L533.3,510.6L533.3,510.6z
		 M529.4,509.5C529.4,509.5,529.4,509.5,529.4,509.5L529.4,509.5C529.4,509.5,529.4,509.5,529.4,509.5L529.4,509.5L529.4,509.5
		L529.4,509.5L529.4,509.5z M529.4,509.4L529.4,509.4L529.4,509.4C529.4,509.4,529.4,509.4,529.4,509.4L529.4,509.4
		C529.4,509.4,529.4,509.4,529.4,509.4z M529.4,509.4L529.4,509.4L529.4,509.4z M529.4,509.5C529.4,509.5,529.4,509.5,529.4,509.5
		C529.4,509.5,529.4,509.5,529.4,509.5z M529.4,509.5L529.4,509.5 M529.4,509.5 M533.3,510.6L533.3,510.6 M533.3,510.6
		C533.3,510.5,533.3,510.5,533.3,510.6 M469.1,493L469.1,493L469.1,493l0.1-0.2v0l22.5-82.2l23.8-73.7l20.2-52.6l20.6-53.6l17.5-32
		l9.5,2.5h0l0,0L469.1,493z M469.1,493L469.1,493L469.1,493z M469.1,493L469.1,493L469.1,493z M469.1,493
		C469.1,493,469.1,493,469.1,493C469.1,493,469.1,493,469.1,493L469.1,493L469.1,493L469.1,493 M469.1,493
		C469.1,492.9,469.1,492.9,469.1,493L469.1,493z M469.1,493 M469.1,493 M469.1,493 M469.1,493L469.1,493L469.1,493z M469.1,493
		 M473,494.1L473,494.1L473,494.1z M473,494.1 M473,494.1L473,494.1L473,494.1z M473,494.2C473,494.2,473,494.2,473,494.2
		C473,494.2,473,494.2,473,494.2z M473,494.2 M473,494.2 M473,494.2 M473,494.2C473,494.2,473,494.2,473,494.2
		C473,494.2,473,494.2,473,494.2z M473,494.2L473,494.2L473,494.2z M473,494.1 M469.1,493"/>
	<path class="st7" d="M681.2,247.3L681.2,247.3C681.3,247.3,681.3,247.3,681.2,247.3L681.2,247.3c0.1,0.1,0.2,0.1,0.3,0.2
		c7.5,6.2-6,39.9-34.1,89.4c-27.8,49.1-69.7,114.4-118.9,184h0l0,0l0,0c-0.1,0.1,0,0,0,0c0,0,0,0-0.1,0.1l0,0
		c-13.4,18.9-27,37.7-40.8,56.3c-12.7,17.2-25.7,34.1-38.9,51C383.8,711.2,332.4,764,321.2,756.3l0,0l0,0l0,0l0,0l0,0l0,0l-0.1-0.1
		c-7.6-6.3,5.9-40,34-89.5c27.8-49.1,69.7-114.4,118.9-184c0.1-0.2,0,0,0.1-0.1l0.1-0.1l0,0c13.4-18.9,27-37.7,40.8-56.3
		c12.7-17.2,25.7-34.1,38.9-51C618.6,292.4,670,239.6,681.2,247.3 M679,250.7C679,250.7,679,250.7,679,250.7L679,250.7
		c-9.2-6.5-58.5,45.9-122,127c-13.1,16.8-26.1,33.8-38.8,50.9c-13.8,18.6-27.4,37.3-40.7,56.2c-0.1,0.2,0,0-0.1,0.1
		c0,0,0-0.1-0.1,0.1l0,0c-49.2,69.6-91,134.7-118.7,183.7c-27.1,47.9-41,79.8-35.1,84.2l0,0c9.1,6.5,58.5-46,121.9-127
		c12.5-15.9,25.5-32.9,38.8-50.9c13.2-17.8,26.8-36.6,40.7-56.2c0.1-0.1,0.1-0.1,0.1-0.1l0.1-0.1l0,0
		c49.2-69.6,91-134.7,118.7-183.6C671,287,684.9,255.1,679,250.7L679,250.7z M528.5,520.9L528.5,520.9 M528.4,521L528.4,521
		L528.4,521z M525.1,518.7L525.1,518.7C525.1,518.7,525.1,518.7,525.1,518.7z M525,518.7L525,518.7L525,518.7z M525,518.7
		C525,518.7,525,518.7,525,518.7C525,518.7,525,518.8,525,518.7z M321,756.2l0.1,0.1c-0.1-0.1-0.2-0.1-0.2-0.2L321,756.2L321,756.2z
		 M474,482.6L474,482.6L474,482.6L474,482.6C474,482.5,474,482.5,474,482.6L474,482.6 M477.3,484.9
		C477.3,484.9,477.3,484.9,477.3,484.9"/>
	<path class="st7" d="M757.5,324.3L757.5,324.3L757.5,324.3c1.8,2.7,0.9,7-2.5,12.5l-3,4.9l-5.1,6.2l-6.9,7.3l-35.2,37.2l-83.5,66.7
		l-101,70l-0.2,0.1l0,0c-19,13.2-38.2,26.2-57.6,38.9l-18.5,12.2L425.8,592l-17.4,10.8l-89.3,55.7l-66.5,32l-7.8-11.2l0,0l0,0
		c-1.8-2.7-0.9-7,2.5-12.5l3-4.9l5.1-6.2l6.9-7.3l35.2-37.2l83.5-66.7l101.1-70l0.1-0.1l-0.4,0.3l0.5-0.3l0,0
		c19-13.2,38.2-26.2,57.6-38.9l18.5-12.2l18.1-11.6l17.3-10.8l89.4-55.7l66.5-32L757.5,324.3L757.5,324.3L757.5,324.3z M754.1,326.6
		L754.1,326.6c-6.5-9.1-70.7,23.3-158,77.7l-17,10.6l-18,11.6l-18.8,12.4l-18.9,12.4l-19.3,13l-19.4,13.4l0,0l0,0l0,0l0,0l0,0l0,0
		l0,0c-100.8,69.8-184,136.3-219,173.3l-6.7,7.1l-4.9,6l-2.9,4.7l-2.5,4l-0.9,2.8l0.9,1.3l0,0l0,0c6.5,9.1,70.7-23.3,158-77.7
		l17-10.6l18-11.6l18.8-12.4l18.9-12.4l19.3-13l19.4-13.4l0,0l0.1-0.1l0.1,0l0,0l0,0l0,0c100.7-69.8,184-136.2,219-173.2l6.7-7.1
		l4.9-6l2.9-4.7l2.5-4.1l0.9-2.7L754.1,326.6L754.1,326.6L754.1,326.6z M520.2,529.2C520.2,529.2,520.2,529.2,520.2,529.2
		L520.2,529.2L520.2,529.2L520.2,529.2 M517.9,525.8L517.9,525.8L517.9,525.8l0.1-0.1C517.9,525.8,517.9,525.8,517.9,525.8
		L517.9,525.8z M484.5,477.8L484.5,477.8L484.5,477.8"/>
	<path class="st7" d="M802.8,422.7L802.8,422.7L802.8,422.7l2.4,9.6L773,449.5l-53.8,20.1l-52.8,19.7l-74,23L509.9,534l0,0l-0.3,0.1
		l0,0h0l-0.1,0l0,0l-0.1,0v0c-22.4,5.9-44.9,11.5-67.4,16.9l-21.6,5.1l-20.9,4.7l-19.9,4.2l-102.9,21.7l-73.4,7.3l-3.5-13.2l0,0l0,0
		l-2.4-9.5l32.2-17.2l53.8-20.1l52.8-19.7l74-23l82.5-21.6l0,0l0.3-0.1l0,0l0,0l0.2,0l0,0l0.1,0v0c22.4-5.9,44.9-11.5,67.4-16.9
		l21.6-5.1l20.9-4.7l20-4.2L726,416.9l73.4-7.3L802.8,422.7L802.8,422.7z M798.8,423.8L798.8,423.8L796,413l-71.4,8.4l-100.7,21.2
		l-19.7,4.2l-20.9,4.7l-21.8,5.2l-21.9,5.2l-22.5,5.6l-22.9,6l0,0l-0.3,0.1l0,0l0,0l-0.2,0l0,0l-0.1,0v0
		c-82.3,21.6-156.2,44.6-208.9,64.2l-51.7,19.3l-31.1,15.5l1.8,7.2v0l2.8,10.8l71.4-8.4L378.6,561l19.7-4.1l20.9-4.7L441,547
		l21.9-5.2l22.6-5.6l22.9-6l0,0l0.3-0.1l0,0l0,0l0.1,0l0,0l0.1,0h0c82.3-21.6,156.2-44.6,208.9-64.2l51.7-19.3l31.1-15.5
		L798.8,423.8z"/>
	<path class="st7" d="M811.6,530.7c0,0.1,0,0.1,0,0.2l-0.4,3.2l-3.5,2.6l-6.2,2l-5.5,1.8l-8,1.5l-10.1,1.1l-51,5.8l-106.4-2.6
		L498.7,535c0.5,0,0.7,0.1-1.3-0.1l0,0l-84.7-7.9l-76.6-10.7l-55.2-10.8l-56.2-11l-34.5-11.7l0.6-9.8v0v0v0 M807.6,530.4
		L807.6,530.4L807.6,530.4C807.6,530.4,807.5,530.5,807.6,530.4L807.6,530.4l0.5-7.4l-33.2-10.3l-54.1-10.6l-55.1-10.8l-76.4-10.6
		l-84.5-7.9v0l-3.4-0.3l4.5,0.4l-1.8-0.2l-121.8-11.3l-106.3-2.6l-50.8,5.7l-9.8,1.1l-7.7,1.4l-5.3,1.7l-4.6,1.5l-2.5,1.5l-0.2,1.5
		v0.1l-0.5,7.4l33.2,10.2l54.1,10.6l55.2,10.8l76.4,10.6l84.5,7.9v0l3.4,0.3l-4.5-0.4l1.8,0.2l121.8,11.3l106.3,2.6l50.8-5.7
		l9.8-1.1l7.7-1.4l5.3-1.7l4.6-1.5l2.5-1.5L807.6,530.4L807.6,530.4z M807.6,530.4L807.6,530.4 M190.8,473c0-0.1,0,0,0-0.1
		c0-0.1,0-0.1,0-0.2l0.4-3.3l3.5-2.6l6.2-2l5.5-1.8l8-1.5l10.1-1.1l51-5.8l106.3,2.6l121.8,11.3c-0.4,0-0.3,0,1.5,0.1l0,0l84.7,7.9
		l76.6,10.7l55.2,10.8l56.3,11l34.5,11.7l-0.7,9.8c0,0.1,0,0,0,0.1v0 M194.8,473.3L194.8,473.3 M194.8,473.3
		C194.8,473.3,194.8,473.3,194.8,473.3 M194.9,473.3L194.9,473.3L194.9,473.3z M194.9,473.2L194.9,473.2L194.9,473.2z M503.6,468.6
		l0.1,0L503.6,468.6z M807.6,530.3L807.6,530.3L807.6,530.3"/>
	<path class="st7" d="M783,635.1L783,635.1L783,635.1z M783,635.1L783,635.1L783,635.1z M783,635.1C783,635.1,783,635.1,783,635.1
		C783,635.1,783,635.1,783,635.1z M783,635.1C783,635.1,783,635.1,783,635.1l0,0.1l-1.4,3l-4.1,1.3l-6.5-0.2l-5.8-0.2l-7.9-1.3
		l-9.8-2.4l-49.8-12l-99.5-39L487,531.9h0l-0.1,0l0,0l-0.1,0l0,0l-21.7-10.3l-20.9-10.2l-19.9-10l-19.8-10l-19.1-9.9l-18-9.6
		l-92.6-49.5l-60.9-41.5l5.5-12.4c0,0,0,0,0,0l0-0.1v0c1.4-3,5.6-4.3,12-4.1l5.8,0.2l7.9,1.3l9.8,2.4l49.8,11.9l99.5,39l111.1,52.6
		h0l0.1,0l0,0l0.1,0l0,0l21.7,10.3l20.9,10.2l19.9,10l19.8,10l19.1,9.9l18,9.7l92.6,49.4l60.8,41.5L783,635.1L783,635.1z
		 M779.3,633.5C779.3,633.5,779.3,633.5,779.3,633.5L779.3,633.5L779.3,633.5c4.7-10.2-55.4-49.7-146.2-98.2l-17.7-9.4l-19-9.9
		l-20.1-10.1l-20-10.1l-20.9-10.2l-21.5-10.2l-0.2-0.1l0,0l0,0v0c-110.8-52.5-210-91.4-259.6-103.3l-9.5-2.3l-7.7-1.3l-5.5-0.2
		l-4.8-0.1l-2.8,0.6l-0.7,1.4l0,0v0c-4.7,10.1,55.4,49.7,146.2,98.1l17.7,9.4l19,9.9l20.1,10.1l20,10.1L467,518l21.5,10.2l0.2,0.1
		l0,0l0,0v0c110.8,52.5,210,91.4,259.6,103.3l9.5,2.3l7.7,1.3l5.5,0.2l4.7,0.1l2.8-0.6L779.3,633.5L779.3,633.5z M779.3,633.5
		L779.3,633.5 M779.3,633.5C779.3,633.5,779.3,633.5,779.3,633.5 M219.4,368.5L219.4,368.5C219.4,368.5,219.4,368.5,219.4,368.5z
		 M219.4,368.4L219.4,368.4L219.4,368.4z M219.4,368.4"/>
	<path class="st7" d="M720.3,723.6L720.3,723.6L720.3,723.6c-2.4,2.3-6.7,2.2-12.7-0.2c-5.4-2.1-12.4-6.1-20.8-11.7
		c-42.7-28.3-122.9-99-209.3-186.5l0,0c0,0,0.1,0-0.1-0.1c-60-60.7-111.9-118.3-147.3-162.2c-36.1-44.7-55-76-48-82.9l0,0l0,0l0,0
		l0,0c2.4-2.3,6.7-2.2,12.7,0.2c5.4,2.1,12.4,6.1,20.8,11.7c42.7,28.3,122.9,99,209.3,186.5l0,0l0,0c13.5,13.6,26.8,27.4,40,41.2
		c12.4,13,24.7,26.2,36.8,39.5c60.1,65.8,103.6,120.5,116.3,146.7h0l0,0v0c0.5,1.1,1,2.2,1.5,3.2c0.5,1.1,0.9,2.1,1.1,3
		C722.6,717.5,722.5,721.4,720.3,723.6z M717.4,720.7L717.4,720.7L717.4,720.7c1-1,0.7-3.4-0.6-7.2c-0.3-0.9-0.7-1.8-1-2.7
		c-0.4-0.9-0.8-1.9-1.4-3l0-0.1v0c-12.6-25.8-55.8-80.2-115.7-145.8c-12.1-13.3-24.4-26.4-36.8-39.4c-13.2-13.9-26.5-27.6-39.9-41.2
		h0l0,0l0,0C435.8,394,355.9,323.5,313.4,295.3c-8.2-5.4-14.9-9.2-20-11.3c-4.4-1.8-7.3-2.2-8.4-1.1l0,0l0,0l0,0h0
		c-5.2,5.2,13.6,34.5,48.3,77.5c35.4,43.8,87.2,101.3,147.1,161.9l0,0c0,0,0,0,0,0v0c0,0,0,0,0,0l0,0
		c86.2,87.2,166.1,157.8,208.6,185.9c8.2,5.4,14.9,9.2,20,11.3C713.5,721.3,716.3,721.7,717.4,720.7z M480.4,522.3"/>
	<path class="st8" d="M722.8,282.5L722.8,282.5l0.8,0.9l0.5,1.1l0.2,1.3l0.2,1.1l0,1.3l-0.3,1.5l-1.2,6.7l-6.1,11.1L706.8,322l0,0
		l0,0l-4.3,6.1l-5,6.8l-5.7,7.4l-5.7,7.4l-6.4,8l-7,8.4l-35.9,43.4L584.7,466l-60.1,59.5h0l0,0h0l-11.2,11.1l-11,10.8l-10.8,10.4
		l-10.9,10.5L470,578.3l-10.4,9.7l-53.8,50.1l-47.6,40.2l-32.5,23h0l0,0l-3.2,2.3l-3.2,2.2l-3.1,2l-3,2l-2.8,1.8l-2.6,1.6l-14.4,8.7
		l-9.8,3l-3.8-3.8h0l0,0l0,0l-0.9-0.9l-0.5-1.2l-0.2-1.5l-0.1-1.3l0.1-1.5l0.4-1.7l1.9-7.9l8-13.5l12.9-17.7l0,0l4.5-6.2l5.2-6.9
		l5.9-7.4l5.9-7.4l6.4-7.8l6.8-8.1l35.5-42.2l49.6-53.4l56.7-56.1l0,0l0,0h0l13.6-13.4l13.4-13l13.1-12.5l13.1-12.5l12.8-12
		l12.4-11.4l64.1-58.8l53.8-43.2l27.6-14.8l0,0l0.1,0l0,0l0,0l0,0h0v0l0,0l0,0v0h0h0v0l0,0l0,0v0 M719.9,285.4L719.9,285.4
		L719.9,285.4c-1.1-1.2-4.2-0.7-9,1.3l-1,0.4l-1.1,0.5l-1.2,0.6l-1.3,0.6l-1.3,0.6l-1.2,0.7l-0.1,0l0.6-0.3l-0.6,0.3l0,0
		c-27.3,14.6-80.8,57.6-144.6,116.2l-12.4,11.4l-12.8,12l-13.1,12.5l-13.1,12.5l-13.4,13L480.7,481l0,0h0L424.1,537l-49.5,53.3
		l-35.5,42.2l-7,8.3l-6.4,7.8l-5.7,7.2l-5.7,7.2l-5.2,6.8l-4.6,6.3l0,0h0l-12.6,17.3l-7.7,13l-1.7,7.4l-0.3,1.3l-0.1,1.1l0.1,0.8
		l0.1,0.6l0.2,0.4l0.3,0.3l0,0l0,0v0c2.2,2.2,10.3-0.9,23-8.6l2.6-1.6l2.8-1.8l2.9-1.9l2.9-1.9l3.1-2.2l3.4-2.4h0l0,0v0l32.4-22.9
		l47.5-40l53.7-50l10.5-9.8l10.7-10.1l10.8-10.4l10.9-10.5l11-10.7l11.1-11v0l0,0h0l59.9-59.3l52-56.4l35.8-43.3l7-8.5l6.3-7.9
		l5.6-7.3l5.6-7.3l5-6.8l4.3-6.2h0l0,0l0,0l9.8-14.1l5.8-10.6l1.1-6.1l0.2-1l0-0.8l-0.1-0.7l-0.1-0.5l-0.1-0.3L719.9,285.4
		L719.9,285.4z M722.7,282.5L722.7,282.5 M702,286.3c1.4-0.7,2.7-1.4,3.8-1.9l1.2-0.6l1.2-0.5l1.2-0.5l6.4-2.6l4.6-0.2l2.4,2.4"/>
	<path class="st8" d="M780.7,373.2L780.7,373.2l-3.1-6.7l-33.9,7.8l-52.2,17.9l-53.3,18.3l-71.7,29.1l-77.3,35.6l0,0l-0.1,0l0,0l0,0
		l-0.1,0l-0.1,0l0,0v0c-77.4,35.6-146.1,71.1-194.6,99.6l-47.6,28l-28,20.7l3,6.7 M784.4,371.5L784.4,371.5L784.4,371.5l5.7,12.4
		l-61.4,40.9l-93.4,48.6l-18,9.4l-19.2,9.7l-20.1,9.8l-19.9,9.7l-21,10L515.3,532l0,0l-0.1,0l0,0l0,0l-0.1,0l-0.1,0l0,0v0
		c-77.5,35.6-149.3,64.8-202.6,83.1l-54.4,18.7l-35.8,7.1l-4.2-8.9v0l0,0l0,0l0,0l-4.1-8.9l28.7-22.5l49.6-29.2l48.6-28.6l68.9-35.6
		l77.5-35.6l0,0l0.1,0l0,0l0,0l0.1,0l0.1,0l0,0c77.5-35.6,149.3-64.8,202.6-83.1l54.4-18.6l35.8-7.1L784.4,371.5L784.4,371.5
		L784.4,371.5z M221.7,630.4l3.1,6.7l33.9-7.8l52.2-17.9l53.3-18.3l71.7-29.1l77.3-35.6l0,0l0.1,0l0,0l0,0l0.1,0l0.1,0l0,0v0
		c21-9.7,41.9-19.6,62.7-29.7l20.1-9.8l19.2-9.7l17.9-9.3l91.3-47.5l60.6-38.9l-4.7-10.2"/>
	<path class="st8" d="M421.9,200.3L421.9,200.3L421.9,200.3l3.2-0.8l3.7,2.3l4,5.1l3.6,4.5l4.1,6.9l4.5,9l22.9,45.8l34.2,101.2
		l31.3,118.8l0,0.1l0,0.1l0,0l0,0v0c5.9,22.4,11.5,44.9,16.9,67.4l5.2,21.7l4.7,20.9l4.2,19.9l21.8,102.9l7.4,73.3l-13.2,3.5h0v0
		l-3.2,0.8l-3.7-2.3l-4-5.1l-3.6-4.5l-4.1-6.9l-4.5-9l-22.9-45.8l-34.2-101.2L469,510.3l0-0.1l0-0.1v0
		c-21.7-82.4-38-158.1-46.8-213.9l-9-56.7l-0.8-36.4l9.4-2.6L421.9,200.3L421.9,200.3L421.9,200.3z M422.9,204.3L422.9,204.3
		L422.9,204.3L422.9,204.3L422.9,204.3c-7.1,2.1-5.3,36.9,3.3,91.2l8.8,55.5l16.3,75.6l21.7,82.3l0,0l0,0.2l0,0l0,0l31.2,118.6
		l34.1,100.9l22.8,45.6l4.4,8.8l4,6.7l3.4,4.3l3,3.8l2.3,1.8l1.5-0.4v0l0,0v0l10.8-2.8l-8.5-71.4l-21.3-100.7l-4.2-19.7l-4.7-20.9
		l-5.2-21.8l-5.2-21.9l-5.7-22.5l-6-22.9l0,0l0-0.2l0,0l0,0l-31.2-118.6l-34.1-100.9l-22.8-45.6l-4.4-8.8l-4-6.7l-3.4-4.3l-3-3.8
		l-2.3-1.8L422.9,204.3L422.9,204.3L422.9,204.3z"/>
	<path class="st8" d="M529.8,191.4l0.1,0h0l3.3,0.4l2.6,3.5l2,6.2l1.8,5.5l1.5,7.9l1.1,10.1l5.8,51l-2.5,106.5l-11.2,122
		c0-0.5,0.1-0.7-0.1,1.2l0,0l-7.8,84.7l-10.6,76.6l-10.8,55.2l-11,56.3l-11.7,34.5l-9.8-0.7v0c-0.1,0,0,0-0.1,0h0l-0.1,0h0l-9.7-1.2
		l-5.2-36.1l-0.5-57.3l-0.5-56.1l3.6-77l7.8-84.6l0.1-1.2l0.1-1.4l-0.4,4.3l0.3-3.6l0,0l7.8-84.7l10.6-76.6l10.8-55.2l11-56.3
		l11.7-34.5l9.8,0.7C529.7,191.4,529.7,191.4,529.8,191.4L529.8,191.4L529.8,191.4z M529.4,195.4L529.4,195.4L529.4,195.4z
		 M534,202.7l-1.5-4.6l-1.5-2.5l-1.5-0.2h-0.1l-7.4-0.5l-10.2,33.2l-10.5,54.1l-10.8,55.2L480,413.8l-7.8,84.5h0l-0.3,3.1l0.4-4.3
		l-0.2,1.9l-0.1,1.2l-7.7,84.3l-3.6,76.9l0.5,56.1l0.5,55l4,34.5l7.3,0.9h0.1l7.4,0.5l10.2-33.2l10.5-54.1l10.7-55.2l10.6-76.4
		l7.8-84.5h0l0.3-3.1l-0.4,4.3l0.2-1.9l11.2-121.9l2.5-106.4l-5.8-50.8l-1.1-9.8l-1.4-7.7L534,202.7L534,202.7z"/>
	<path class="st8" d="M632.6,223.6L632.6,223.6C632.6,223.6,632.6,223.6,632.6,223.6L632.6,223.6L632.6,223.6
		c-6.8-3.1-27.8,24.7-56.2,71.9l-29,48.2l-36.2,68.4l-36.3,77l-0.1,0.1l0,0l0,0l0,0.1l0,0l0,0.1l0,0l-36.4,77l-29.8,71.4l-18.8,53.1
		l-18.4,52l-8.1,33.8l6.6,3.2v0c0,0,0,0,0,0c10.2,4.6,49.6-55.5,98-146.3l9.4-17.7l9.8-19l10.1-20.1l10-20l10.2-20.9l10.1-21.5
		l0.1-0.2l0,0l0,0l0-0.1l0,0l0-0.1l0,0l36.4-77l29.8-71.4l18.8-53.1l18.4-52l8.1-33.8L632.6,223.6L632.6,223.6z M632.6,223.6
		L632.6,223.6 M632.5,223.6 M634.3,219.9L634.3,219.9L634.3,219.9L634.3,219.9L634.3,219.9L634.3,219.9c8.9,4.3,1.4,40-17.7,94.2
		l-18.8,53.2l-29.9,71.5l-36.4,77.1v0l0,0h0l0,0 M634.3,219.9L634.3,219.9 M531.4,515.9l-0.1,0.1l0,0.1l0,0l0,0l0,0L521,537.9
		l-10.2,20.9l-10,19.9l-9.9,19.8l-9.9,19.1l-9.6,18l-49.4,92.7l-41.4,60.9l-12.4-5.5c0,0,0,0,0,0l-0.1,0l0,0v0h0
		c-8.8-4.3-1.4-40,17.8-94.1l18.8-53.2l29.9-71.5l36.4-77.1l0.1-0.2l0,0l0,0l0-0.1l0,0l0-0.1l0,0l36.4-77.1l36.2-68.5l29.1-48.3
		l29.6-49.3l22.8-28.5l8.9,4.2 M368.2,783.7L368.2,783.7L368.2,783.7z M369.8,780C369.8,780,369.8,780,369.8,780"/>
	<path class="st8" d="M811.9,476.3L811.9,476.3c0,0,0,0,0,0.1l0.2,3.3l-3,3.2l-5.8,3.1l-5.1,2.7l-7.6,2.8l-9.7,2.9L731.7,509
		L626.2,525l-122.2,10h0l-0.8,0.1l-23.7,1.9l-23.2,1.6l-22.4,1.3l-22.3,1.3l-21.4,1l-20.3,0.7l-104.9,3.5l-73.3-5.5l-1.1-13.6v0v0
		l0-0.2l-0.2-3.3l3-3.2l5.8-3.1l5.1-2.8l7.6-2.8l9.7-2.9l49.3-14.6l105.5-15.9l122.3-10h0h0L811.9,476.3z M807.8,476.7 M807.8,476.7
		C807.8,476.7,807.8,476.7,807.8,476.7l-0.9-11.1l-71.6-4.1l-102.6,3.4l-20.1,0.7l-21.4,1l-22.3,1.3l-22.2,1.3l-23.2,1.6l-23.9,2
		l-0.1,0l-0.4,0l-0.4,0h0l-122.1,10l-105.2,15.9l-49,14.5l-9.4,2.8l-7.3,2.7l-4.9,2.6l-4.3,2.3l-2.2,1.9l0.1,1.5v0c0,0,0,0,0,0v0
		l0.9,11.1l71.6,4.1l102.6-3.4l20.1-0.7l21.4-1l22.3-1.3l22.2-1.3l23.2-1.6l23.9-2l0.1,0l0.4,0l0.4,0h0l122-10L730.9,505l49-14.5
		l9.4-2.8l7.3-2.7l4.9-2.6l4.3-2.3l2.2-1.9L807.8,476.7L807.8,476.7L807.8,476.7z M503.9,535L503.9,535 M194.6,526.9L194.6,526.9
		L194.6,526.9z M194.6,526.9 M498.5,468.6c0.3,0,0.6,0,0.8-0.1l23.7-1.9l23.2-1.6l22.4-1.3l22.3-1.3l21.4-1l20.3-0.7l104.9-3.5
		l73.3,5.5l1.1,13.6"/>
	<path class="st8" d="M801.9,584.2L801.9,584.2L801.9,584.2l-0.9,3.2l-3.8,2l-6.4,0.9l-5.7,0.8l-8,0.1l-10-0.6l-51.2-3.1
		l-104.8-21.1l-118.5-32.5l0,0h0l-0.1,0l-0.2,0h0L410,511.3l-73.7-23.8l-52.7-20.3L230,446.5L198,429l2.5-9.5v0l0,0l0,0l0,0l0.9-3.2
		l3.8-2l6.4-0.9l5.7-0.8l8-0.1l10,0.6l51.2,3.1l104.8,21.2L510,469.7l0,0l0,0l0.1,0l0.1,0h0l82.2,22.5l73.7,23.9l52.7,20.3
		l53.6,20.7l32,17.6L801.9,584.2L801.9,584.2L801.9,584.2z M797.9,583.2L797.9,583.2L797.9,583.2L797.9,583.2
		c1.9-7.2-29.1-23.1-80.6-42.9L664.9,520l-73.6-23.8l-82.1-22.5l-0.3-0.1v0l-118.2-32.4l-104.4-21.1l-50.9-3.1l-9.8-0.6l-7.8,0.1
		l-5.4,0.8l-4.7,0.7l-2.7,1.1l-0.4,1.4l0,0l0,0c-1.8,7.1,29.1,23,80.6,42.9l52.5,20.2l73.6,23.8l82.1,22.5l0.2,0.1v0l118.2,32.4
		l104.4,21.1l50.9,3.1l9.8,0.6l7.8-0.1l5.4-0.8l4.7-0.7l2.7-1.1L797.9,583.2L797.9,583.2z"/>
	<path class="st8" d="M755.6,682.1L755.6,682.1L755.6,682.1L755.6,682.1l-0.2,0.2l0,0l0,0c-2,2.6-6.2,3.1-12.5,1.8l-5.7-1.2
		l-7.6-2.7l-9.3-4l-47-20.4l-91.2-55.7L482,529h0v0v0v0h0h0l0,0h0 M752.2,679.8C752.2,679.8,752.2,679.8,752.2,679.8L752.2,679.8
		L752.2,679.8z M743.8,680.1l4.6,1l2.9-0.1l0.9-1.2v0l0,0l0,0l0-0.1l0,0c4-6.2-19.7-31.7-61.1-67.8l-42.4-37l-61-47.6L518.2,478v0
		l-0.1-0.1l0,0l0,0l-0.1-0.1l0,0l-69.5-49.3l-65.1-41.8l-49-27.8l-47.9-27.2l-31.9-13.9l-4.4,5.9l0,0l0,0l0,0l0,0v0c0,0,0,0,0,0
		c-4,6.1,19.6,31.6,61.1,67.8l42.4,37l61,47.6l69.5,49.3l0,0l0.2,0.2l-0.3-0.2l0.2,0.1l0,0l100.1,70.9l90.9,55.6l46.8,20.3l9,3.9
		l7.3,2.6L743.8,680.1L743.8,680.1z M482,529 M481.9,529C481.9,529,481.9,529,481.9,529 M481.9,529l-0.1-0.1l-69.6-49.3l-61.1-47.7
		l-42.5-37.1L265.3,357l-24-27.4l5.6-8.1c0,0,0,0,0,0l0.1-0.1l0.1-0.1l0.1-0.1c6.2-7.5,39.9,6.1,89.4,34.2l49.1,27.8l65.2,41.9
		l69.6,49.3l0,0l0.2,0.1l-0.2-0.1l0.1,0.1l0.1,0.1l0,0l69.6,49.3l61.1,47.7l42.5,37.1l43.3,37.7l24,27.4l-5.5,8.1c0,0,0,0,0,0
		 M246.9,321.5C246.9,321.5,246.9,321.5,246.9,321.5C246.9,321.5,246.9,321.5,246.9,321.5z M250.2,323.9L250.2,323.9 M250.2,323.9
		L250.2,323.9 M520.4,474.6L520.4,474.6L520.4,474.6z M518.1,478L518.1,478L518.1,478L518.1,478L518.1,478z M518.2,478L518.2,478
		L518.2,478z M518.2,478C518.2,478,518.2,478,518.2,478C518.2,478,518.2,478,518.2,478z"/>
	<path class="st8" d="M678.4,758.3L678.4,758.3L678.4,758.3c-2.7,1.8-7,0.9-12.5-2.5c-4.9-3-11.1-8.2-18.4-15.1
		c-37.2-35.3-103.8-118.9-173.7-220c-0.1-0.1,0.2,0.3-0.1-0.1h0c-48.5-70.2-89.6-135.9-116.9-185.3c-27.8-50.3-41-84.4-32.9-90l0,0
		l0,0l0,0l0,0c8.1-5.5,35.3,18.8,72.5,62.6c36.5,42.9,83.5,104.6,132,174.8l0.1,0.1l0,0l0,0v0c9.6,13.8,19,27.7,28.3,41.7
		c8.9,13.3,17.6,26.6,26.2,40.1c43,67,75.3,124.1,89.7,158.2l0,0.1c1.1,2.7,2.1,5.1,3,7.4c0.9,2.3,1.7,4.5,2.3,6.6
		C681.9,748.3,682.2,755.7,678.4,758.3L678.4,758.3L678.4,758.3z M676.2,754.9L676.2,754.9L676.2,754.9c2-1.4,1.3-7.2-1.8-16.7
		c-0.7-2-1.4-4.1-2.3-6.4c-0.9-2.3-1.9-4.8-2.9-7.3l0-0.1c-14.2-33.9-46.4-90.8-89.4-157.6c-8.6-13.4-17.3-26.8-26.2-40
		c-9.3-14-18.8-27.9-28.3-41.7v0l0,0v0l-0.1-0.1c-48.4-70-95.2-131.6-131.8-174.5c-35.8-42-61-66-67.1-61.8l0,0v0l0,0l0,0
		c-6,4.3,7.5,36.3,34.1,84.7c27.2,49.3,68.3,114.9,116.7,185l0,0l0.1,0.1l0,0l0,0c69.7,100.9,136.1,184.2,173.1,219.3
		c7.1,6.8,13.1,11.7,17.8,14.6C672.1,754.9,674.9,755.8,676.2,754.9L676.2,754.9z M477.2,518.5L477.2,518.5 M477.2,518.5
		L477.2,518.5"/>
	
		<radialGradient id="SVGID_2_" cx="-901.3026" cy="87.6105" r="23.4951" gradientTransform="matrix(12.6508 0 0 -12.6508 11898.3047 1609.0911)" gradientUnits="userSpaceOnUse">
		<stop  offset="0" style="stop-color:#FFFFFF"/>
		<stop  offset="0.12" style="stop-color:#FFFFFF"/>
		<stop  offset="0.29" style="stop-color:#8AC650"/>
		<stop  offset="0.42" style="stop-color:#2E6C3B"/>
		<stop  offset="0.599" style="stop-color:#1C3A25"/>
		<stop  offset="1" style="stop-color:#263526"/>
	</radialGradient>
	<path class="st9" d="M479.2,270.8c19.9-26.2,43.2-51.1,67.4-61.4c38.9-16.6,75.7,2.9,79.2,45.1c1.9,21.9-5.6,45.9-17.6,61.2
		c-17.5,22.3-49.8,39.2-67.7,54c-13.3,11-14.3,15.8-16.5,32c-1.6,11.9-2.2,24.1-1.8,36.8l-28.3,20c-0.4-19.3,0.1-38.5,1.6-56.7
		c0.9-11,2.4-20.4,4.6-27.4c3.9-12.3,11.1-19.2,27.5-31c16.6-11.9,39-25.7,52.7-38.4c12.3-11.4,23.8-27.8,26.5-44.9
		c2-12.5-1.3-24.2-8.7-31.7c-6.5-6.6-16.3-9.8-28.5-7.3c-8.1,1.7-16.2,5.6-22.8,11c-15.7,12.9-29.9,34.8-44.8,60.9
		C494.4,286.2,486.8,277.7,479.2,270.8L479.2,270.8z M464.5,519.8l7.4,9.6l-32.4,16.5c9.9,10.9,17.1,24.2,25.2,37
		c-8.9,3.2-14.9,5.8-23.8,9.1c-2.3-13.3-7.1-25-16.8-38.2l-56.7,28.9c9,27.3,16.2,58-21.3,70c-30.7,9.9-56.2-1.3-76.3-20.4l-37.4,19
		l-7.4-9.6l36.2-18.4c-15-17.2-26.3-38-33.9-58.3c8.4-0.6,17.6-1.1,26-1.7c2.7,16.6,6.5,34.5,20.6,52.7l0.5,0.6l61.9-31.5
		c-8.9-25.6-15.3-52.6,19.8-64c21.2-6.8,52.5-3.9,74.9,15.8L464.5,519.8z M340.2,596.4l-57.4,29.2c15.1,13.3,35,19.2,51.4,13.9
		C352.1,633.7,347.3,616.3,340.2,596.4L340.2,596.4z M363.5,571.2l52.3-26.6c-12.2-10.2-31.9-16.7-49.6-11
		C353.2,537.8,357.3,552.9,363.5,571.2z M508.3,537.8l9-8.1l18.8,31.1c10.2-10.6,22.9-18.8,35.1-27.8c3.9,8.7,6.9,14.4,10.8,23.1
		c-13.1,3.3-24.4,8.9-36.9,19.5l32.9,54.5c26.6-11,56.6-20.3,71.4,16.2c12.1,29.9,2.8,56.2-14.8,77.5l21.7,35.9l-9,8.1l-21-34.8
		c-16.1,16.2-36,29-55.7,38c-1.2-8.3-2.4-17.5-3.6-25.8c16.3-3.8,34-9,51.1-24.3l0.6-0.5L582.7,661c-24.9,10.7-51.4,19.1-65.2-15.1
		c-8.4-20.7-7.7-52.1,10.3-75.8L508.3,537.8L508.3,537.8z M593.7,656.2l33.3,55.1c12.2-16,16.6-36.3,10.1-52.3
		C630,641.6,613.1,647.7,593.7,656.2L593.7,656.2z M566.9,634.8l-30.3-50.2c-9.3,12.9-14.3,33-7.4,50.3
		C534.3,647.5,549.1,642.3,566.9,634.8L566.9,634.8z M528,479.1l-7.2-9.7l32.6-16c-9.7-11.1-16.7-24.4-24.6-37.4
		c9-3.1,15-5.6,24-8.7c2.1,13.3,6.7,25.1,16.2,38.5l57.2-28c-8.6-27.5-15.3-58.2,22.4-69.7c30.8-9.4,56.2,2.2,75.9,21.6l37.7-18.4
		l7.2,9.7L733,378.9c14.7,17.5,25.7,38.4,33,58.8c-8.4,0.5-17.6,0.8-26.1,1.3c-2.4-16.6-6-34.6-19.7-53c-0.2-0.2-0.3-0.4-0.5-0.6
		l-62.4,30.5c8.5,25.7,14.5,52.9-20.8,63.6c-21.3,6.5-52.6,3.1-74.6-17L528,479.1z M653.5,404.6l57.8-28.3
		c-14.9-13.5-34.7-19.7-51.2-14.7C642.2,367.1,646.7,384.5,653.5,404.6L653.5,404.6z M629.8,429.4l-52.7,25.8
		c12,10.4,31.6,17.2,49.4,11.8C639.6,462.9,635.7,447.8,629.8,429.4L629.8,429.4z M483.4,465.3l-9.1,8L455.9,442
		c-10.3,10.5-23,18.6-35.4,27.4c-3.8-8.7-6.8-14.5-10.5-23.2c13.1-3.1,24.5-8.6,37.1-19.1l-32.3-54.8C388,383,357.9,392,343.5,355.4
		c-11.8-30-2.2-56.2,15.6-77.4l-21.3-36.1l9.1-8l20.6,35c16.3-16.1,36.3-28.6,56.1-37.5c1.1,8.3,2.2,17.5,3.3,25.8
		c-16.4,3.7-34,8.6-51.3,23.8l-0.6,0.5l35.3,59.8c25-10.5,51.6-18.6,65.1,15.8c8.1,20.7,7.2,52.2-11.1,75.7L483.4,465.3z
		 M399.3,346.1l-32.7-55.4c-12.3,15.9-17,36.1-10.6,52.2C362.8,360.3,379.8,354.4,399.3,346.1L399.3,346.1z M425.9,367.7l29.8,50.5
		c9.5-12.8,14.7-32.9,7.9-50.2C458.6,355.4,443.7,360.4,425.9,367.7L425.9,367.7z M725.6,487.6c25.9,20.2,50.5,43.9,60.5,68.2
		c16.1,39.1-3.9,75.6-46.1,78.6c-21.9,1.6-45.8-6.2-60.9-18.4c-22.1-17.8-38.6-50.3-53.1-68.4c-10.9-13.4-15.7-14.5-31.8-16.9
		c-11.9-1.8-24.1-2.5-36.8-2.2L537.7,500c19.3-0.2,38.5,0.6,56.7,2.3c11,1,20.4,2.6,27.3,4.9c12.3,4.1,19.1,11.3,30.6,27.9
		c11.7,16.8,25.2,39.3,37.7,53.2c11.3,12.4,27.5,24.2,44.5,27.1c12.4,2.1,24.2-1,31.8-8.3c6.7-6.4,10-16.1,7.6-28.4
		c-1.6-8.1-5.4-16.3-10.7-22.9c-12.7-15.9-34.4-30.4-60.3-45.6C710,502.6,718.6,495.1,725.6,487.6L725.6,487.6z M509.4,731.7
		c-20.1,26-43.8,50.6-68.1,60.7c-39.1,16.2-75.6-3.7-78.8-45.9c-1.6-21.9,6.1-45.9,18.2-61c17.8-22.1,50.2-38.7,68.3-53.3
		c13.4-10.9,14.5-15.7,16.8-31.9c1.7-11.9,2.4-24.1,2.1-36.8c9.5-6.6,19-13.1,28.6-19.7c0.2,18.9-0.5,37.8-2.1,56.7
		c-1,11-2.6,20.4-4.9,27.3c-4.1,12.3-11.3,19.1-27.8,30.7c-16.7,11.8-39.3,25.3-53.1,37.9c-12.4,11.3-24.1,27.5-27,44.6
		c-2.1,12.4,1,24.2,8.3,31.8c6.5,6.7,16.2,10,28.5,7.6c8.1-1.6,16.3-5.5,22.9-10.8c15.8-12.7,30.3-34.5,45.5-60.5
		C494.3,716.1,501.9,724.7,509.4,731.7L509.4,731.7z M270.8,518.4c-26.8-19-52.4-41.6-63.4-65.5c-17.8-38.4,0.5-75.7,42.6-80.6
		c21.8-2.5,46.1,4.2,61.7,15.6c22.9,16.8,40.7,48.5,56.1,66c11.4,13,16.3,13.8,32.5,15.5c11.9,1.2,24.2,1.4,36.8,0.6l20.9,27.7
		c-19.2,1-38.5,1.1-56.7,0.2c-11-0.5-20.5-1.7-27.5-3.7c-12.4-3.6-19.5-10.5-31.8-26.5c-12.5-16.2-26.9-38.2-40-51.5
		c-11.8-11.9-28.5-23-45.7-25.1c-12.5-1.6-24.2,2-31.4,9.7c-6.4,6.7-9.3,16.6-6.4,28.8c2,8.1,6.2,16,11.7,22.4
		c13.4,15.3,35.7,28.8,62.3,42.9C285.7,502.8,277.4,510.6,270.8,518.4L270.8,518.4z"/>
	<path class="st10" d="M606.6,317.8c-3.4,4.1-7.4,8-11.6,11.8c-8.9-5.3-18.3-9.8-27.9-13.6c4.9-3.7,9.5-7.3,13.3-10.9l0.7-0.6
		C589.8,308.2,598.4,312.7,606.6,317.8L606.6,317.8z M505.8,286.6c-1.3,2.2-2.5,4.3-3.8,6.6c-2.4-2.2-4.8-4.5-7.1-6.8h0.2
		C498.7,286.3,502.3,286.4,505.8,286.6z M646.2,349c4.2,4.2,8.3,8.6,12.1,13.2c-6.5,2.5-9.6,6.9-10.5,12.5
		c-5.1-6.2-10.6-12.2-16.5-17.7C635.1,353.8,640,351.1,646.2,349L646.2,349z M679.4,391.9c2,3.4,4,6.9,5.8,10.4l-14.4,7.1
		c-1.8-3.5-3.8-7-5.8-10.4L679.4,391.9L679.4,391.9z M708.8,504.2c-0.1,3.1-0.2,6.1-0.4,9.2c-1.8-1.1-3.6-2.2-5.5-3.2
		C704.8,508.1,706.8,506.2,708.8,504.2z M689.9,588c-4,8.8-8.6,17.3-13.8,25.5c-4.1-3.7-8-7.7-11.5-11.9c5.4-8.9,10.1-18.3,14-27.9
		C682.3,579,686.1,583.9,689.9,588z M649.7,647.3c-4,4.2-8.2,8.2-12.5,12.1c-0.1-0.1-0.1-0.3-0.2-0.4c-2.6-6.4-6.5-9.6-11.5-10.7
		c5.6-4.9,10.9-10.2,15.9-15.7c2.9,3.6,5.5,8.1,7.8,13.7C649.5,646.7,649.6,647,649.7,647.3z M608.6,681c-3.4,2.1-6.8,4.1-10.2,6.1
		l-8.3-13.8c3.5-1.9,6.9-3.9,10.2-6.1L608.6,681L608.6,681z M491.5,713.7c-2.4,0-4.8-0.1-7.2-0.2c0.8-1.4,1.7-2.9,2.5-4.3
		C488.4,710.6,489.9,712.1,491.5,713.7z M409.5,695.7c-8.9-3.9-17.5-8.5-25.8-13.6c3.7-4.1,7.7-8,12-11.5
		c9.1,5.3,18.5,9.9,28.3,13.7C418.6,688.1,413.6,691.9,409.5,695.7z M345.9,652.7c-4.3-4.2-8.4-8.5-12.3-13c0.2-0.1,0.4-0.1,0.6-0.2
		c6.5-2.1,10-5.7,11.4-10.4c4.9,5.6,10.1,11,15.5,16c-4,3-9,5.5-15.3,7.5C346,652.6,345.9,652.6,345.9,652.7z M312.4,610.5
		c-2.1-3.4-4-6.8-5.9-10.4l14.3-7.3c1.9,3.5,3.9,7,5.9,10.3L312.4,610.5z M281.6,506.7c-0.2-5.8-0.1-11.7,0.2-17.5
		c3.5,1.9,7,3.8,10.6,5.7C289.1,498.8,285.3,502.8,281.6,506.7L281.6,506.7z M299.6,414.1c3.8-8.7,8.2-17.1,13.2-25.2
		c4.3,3.3,8.4,7,12.2,11c-5.2,8.7-9.7,17.9-13.4,27.3c-3-3.8-6.3-7.4-9.7-10.9C301.1,415.5,300.3,414.8,299.6,414.1L299.6,414.1z
		 M342,351.2c4.1-4.2,8.3-8.2,12.7-12.1c0.3,1.2,0.8,2.5,1.2,3.7c1.9,4.9,4.6,7.9,8,9.6c-5.1,4.5-9.9,9.3-14.5,14.3
		c-2.4-3.6-4.4-7.4-5.9-11.4C343,354,342.5,352.6,342,351.2z M382.9,318.3c3.4-2.1,6.8-4.1,10.3-6l8.2,13.8c-3.5,1.9-6.9,3.9-10.3,6
		L382.9,318.3z"/>
	<path class="st4" d="M157.1,527.3c0,1,0.2,1.7,0.6,2.1c0.4,0.4,1.2,0.7,2.4,1v1.5h-19.7v-1.5c1.2-0.3,2-0.6,2.4-1
		c0.4-0.4,0.6-1.1,0.6-2.1v-46.8c0-1-0.2-1.7-0.6-2.1c-0.4-0.4-1.2-0.7-2.4-1v-1.5h29.3v1.5c-0.8,0.2-1.4,0.5-1.8,0.8
		c-0.4,0.3-0.6,0.7-0.6,1.1c0,0.4,0.2,1.1,0.7,2.1c0.1,0.1,0.1,0.2,0.1,0.2l9.4,20.1l10.7-20.1c0.2-0.4,0.3-0.8,0.5-1.3
		c0.1-0.3,0.2-0.7,0.2-1.1c0-0.4-0.2-0.8-0.6-1.1c-0.5-0.4-1.2-0.7-1.8-0.8v-1.5h30v1.5c-1.2,0.3-2,0.6-2.4,1
		c-0.4,0.4-0.6,1.1-0.6,2.1v46.8c0,1,0.2,1.6,0.6,2.1c0.4,0.4,1.2,0.7,2.4,1v1.5h-21.7v-1.5c1.2-0.3,2-0.6,2.4-1
		c0.4-0.4,0.6-1.1,0.6-2.1v-33.7l-20.6,39.3l-19.9-39.3L157.1,527.3L157.1,527.3z M238.5,531.9v-1.5c1.2-0.3,2-0.6,2.3-0.9
		c0.4-0.4,0.5-1.1,0.5-2.1v-46.8c0-1.1-0.2-1.8-0.5-2.1c-0.3-0.4-1.1-0.7-2.3-1v-1.5h22.7v1.5c-1.2,0.3-2,0.6-2.4,1
		c-0.4,0.4-0.6,1.1-0.6,2.1v46.8c0,1,0.2,1.7,0.6,2.1c0.4,0.4,1.2,0.7,2.4,1v1.5H238.5L238.5,531.9z M336.1,518.6
		c1,0,1.8-0.2,2.2-0.5c0.4-0.3,0.8-1,1.1-2.2h1.6v18.5h-1.6c-0.3-1.1-0.6-1.8-1.1-2.2c-0.4-0.3-1.1-0.5-2.2-0.5h-56.7v-1.5
		c1.2-0.3,2-0.5,2.3-0.9c0.4-0.4,0.5-1.1,0.5-2.1v-46.8c0-1.1-0.2-1.8-0.5-2.1c-0.3-0.4-1.1-0.7-2.3-1v-1.5h22.7v1.5
		c-1.2,0.3-2,0.6-2.4,1c-0.4,0.4-0.6,1.1-0.6,2.1v38.2L336.1,518.6L336.1,518.6z M402.4,518.6c1.1,0,1.8-0.2,2.2-0.5
		c0.4-0.3,0.8-1,1.1-2.2h1.6v18.5h-1.6c-0.3-1.1-0.7-1.8-1.1-2.2c-0.4-0.3-1.1-0.5-2.2-0.5h-56.7v-1.5c1.2-0.3,2-0.6,2.3-0.9
		c0.3-0.4,0.5-1.1,0.5-2.1v-46.8c0-1.1-0.2-1.8-0.5-2.1c-0.4-0.4-1.1-0.7-2.3-1v-1.5h22.7v1.5c-1.2,0.3-2,0.6-2.4,1
		c-0.4,0.4-0.6,1.1-0.6,2.1v38.2L402.4,518.6L402.4,518.6z M416.8,531.9v-1.5c1.2-0.3,2-0.5,2.3-0.9c0.4-0.4,0.5-1.1,0.5-2.1v-46.8
		c0-1.1-0.2-1.8-0.5-2.1c-0.3-0.4-1.1-0.7-2.3-1v-1.5h22.7v1.5c-1.2,0.3-2,0.6-2.4,1c-0.4,0.4-0.6,1.1-0.6,2.1v46.8
		c0,1,0.2,1.6,0.6,2.1c0.4,0.4,1.2,0.7,2.4,1v1.5H416.8L416.8,531.9z M499.3,533c-10.6,0-19.3-2.8-26.2-8.6
		c-6.9-5.7-10.3-12.8-10.3-21.4c0-8.6,3.4-15.8,10.3-21.4c6.8-5.6,15.6-8.5,26.3-8.5c10.6,0,19.4,2.8,26.2,8.5
		c6.8,5.6,10.2,12.8,10.2,21.4c0,8.6-3.4,15.7-10.3,21.4C518.6,530.1,509.9,533,499.3,533L499.3,533z M480.9,503.1c0,5,1.7,9,5,12
		c3.3,3,7.8,4.5,13.5,4.5c5.5,0,10-1.5,13.3-4.5c3.3-3,5-7,5-11.9c0-4.9-1.7-8.9-5.1-11.9c-3.4-3-7.8-4.6-13.4-4.6
		c-5.5,0-9.9,1.5-13.3,4.6C482.6,494.2,480.9,498.2,480.9,503.1L480.9,503.1z M558.5,527.3c0,1.1,0.2,1.8,0.5,2.1
		c0.3,0.4,1.1,0.7,2.3,0.9v1.5h-20.2v-1.5c1.2-0.3,2-0.6,2.3-0.9s0.5-1.1,0.5-2.1v-46.8c0-1.1-0.2-1.8-0.5-2.1
		c-0.3-0.4-1.1-0.7-2.3-1v-1.5h26.3v1.5c-0.7,0.2-1.3,0.5-1.7,0.8c-0.4,0.3-0.6,0.7-0.6,1.1c0,0.4,0.4,1,1.3,1.9l0.5,0.6l25.2,25.8
		v-27c0-1-0.2-1.7-0.6-2.1c-0.4-0.4-1.2-0.7-2.4-1v-1.5h20.6v1.5c-1.2,0.3-2,0.6-2.4,1c-0.4,0.4-0.6,1.1-0.6,2.1v46.8
		c0,1,0.2,1.6,0.6,2.1c0.4,0.4,1.2,0.7,2.4,1v1.5h-21.7v-1.5c0.6-0.1,1.2-0.4,1.7-0.7c0.4-0.3,0.6-0.7,0.6-1.1
		c0-0.5-0.5-1.2-1.5-2.3c-0.1-0.1-0.2-0.1-0.2-0.2l-30.1-30.7L558.5,527.3L558.5,527.3L558.5,527.3L558.5,527.3z M639.3,510.6h20.1
		l-10.4-24.7L639.3,510.6z M664.5,531.9v-1.5c0.6-0.1,1.2-0.4,1.6-0.7c0.4-0.3,0.6-0.7,0.5-1.2c0-0.3-0.1-0.6-0.2-0.9
		c-0.2-0.5-0.4-1-0.6-1.5l-2.4-6.1h-27.9l-2.5,6.1c-0.1,0.3-0.2,0.6-0.3,1c-0.1,0.3-0.1,0.6-0.1,0.9c0,0.7,0.2,1.2,0.6,1.6
		c0.4,0.4,1,0.7,1.8,0.9v1.5h-20.4v-1.5c2-1,3.7-3.2,5-6.8l0.3-0.8l15.8-40.3c0.3-0.8,0.5-1.5,0.7-2.1c0.1-0.4,0.2-0.8,0.3-1.2
		c0-0.6-0.1-1-0.4-1.2c-0.3-0.3-0.7-0.4-1.4-0.5v-1.5h29.9v1.5c-0.6,0.1-1.1,0.2-1.3,0.5c-0.3,0.2-0.4,0.7-0.4,1.2
		c0,0.2,0.1,0.6,0.3,1.2c0.2,0.6,0.5,1.3,0.8,2.1l19.1,44.9c0,0,0,0.1,0.1,0.2c0.6,1.5,1.6,2.5,2.9,2.9v1.5L664.5,531.9L664.5,531.9
		L664.5,531.9L664.5,531.9z M693.7,531.9v-1.5c1.2-0.3,2-0.5,2.3-0.9c0.4-0.4,0.5-1.1,0.5-2.1v-46.8c0-1.1-0.2-1.8-0.5-2.1
		c-0.3-0.4-1.1-0.7-2.3-1v-1.5h22.7v1.5c-1.2,0.3-2,0.6-2.4,1c-0.4,0.4-0.6,1.1-0.6,2.1v46.8c0,1,0.2,1.6,0.6,2.1
		c0.4,0.4,1.2,0.7,2.4,1v1.5H693.7L693.7,531.9z M732.9,531.9v-1.5c1.2-0.3,2-0.6,2.3-0.9c0.3-0.4,0.5-1.1,0.5-2.1v-46.8
		c0-1.1-0.2-1.8-0.5-2.1c-0.4-0.4-1.1-0.7-2.3-1v-1.5h41.7c7.5,0,13.3,1.6,17.4,4.7c4.2,3.1,6.2,7.5,6.2,13.1c0,4.3-1.3,8-3.9,10.9
		c-2.6,2.9-6.4,5.1-11.5,6.5l8.9,13.1c1.6,2.4,2.8,4,3.8,4.8c1,0.8,2,1.3,3.1,1.5v1.5h-24.1l0.1-1.5c0.5-0.1,1-0.4,1.4-0.7
		c0.3-0.3,0.5-0.7,0.5-1.1c0-0.5-0.3-1.2-1-2.1c-0.3-0.4-0.5-0.7-0.7-0.9l-9.8-14.4h-12.3v16.1c0,1,0.2,1.7,0.6,2.1
		c0.4,0.4,1.2,0.7,2.4,1v1.5L732.9,531.9L732.9,531.9L732.9,531.9L732.9,531.9z M752.7,487.2v12.7h14.7c4.7,0,8.1-0.5,10.2-1.5
		c2.1-1,3.1-2.7,3.1-4.9c0-2.3-1-3.9-2.9-4.9c-1.9-0.9-5.6-1.4-10.8-1.4L752.7,487.2L752.7,487.2z M859.9,518.6
		c1.1,0,1.8-0.2,2.2-0.5c0.4-0.3,0.8-1,1.1-2.2h1.6v18.5h-1.6c-0.3-1.1-0.6-1.8-1.1-2.2c-0.4-0.3-1.1-0.5-2.2-0.5h-54.2v-1.5
		c1.2-0.3,2-0.5,2.3-0.9c0.4-0.4,0.5-1.1,0.5-2.1v-46.8c0-1.1-0.2-1.8-0.5-2.1c-0.3-0.4-1.1-0.7-2.3-1v-1.5H860
		c1.1,0,1.8-0.2,2.2-0.6c0.4-0.3,0.7-1.1,1-2.2h1.6v18.6h-1.6c-0.3-1.1-0.6-1.8-1-2.2c-0.4-0.3-1.1-0.5-2.2-0.5h-34.6v7.9h20.7
		c1.1,0,1.8-0.2,2.3-0.5c0.4-0.3,0.8-1.1,1.2-2.2h1.6v17.4h-1.6c-0.3-1.1-0.7-1.8-1.1-2.2c-0.5-0.3-1.2-0.5-2.3-0.5h-20.7v9.6
		L859.9,518.6L859.9,518.6L859.9,518.6z"/>
	<path class="st5" d="M155.1,525.3c0,1,0.2,1.7,0.6,2.1c0.4,0.4,1.2,0.7,2.4,1v1.5h-19.7v-1.5c1.2-0.3,2-0.6,2.4-1
		c0.4-0.4,0.6-1.1,0.6-2.1v-46.8c0-1-0.2-1.7-0.6-2.1c-0.4-0.4-1.2-0.7-2.4-1v-1.5h29.3v1.5c-0.8,0.2-1.4,0.5-1.8,0.8
		c-0.4,0.3-0.6,0.7-0.6,1.1c0,0.4,0.2,1.1,0.7,2.1c0.1,0.1,0.1,0.2,0.1,0.2l9.4,20.1l10.7-20.1c0.2-0.4,0.3-0.8,0.5-1.3
		c0.1-0.3,0.2-0.7,0.2-1.1c0-0.4-0.2-0.8-0.6-1.1c-0.5-0.4-1.2-0.7-1.8-0.8v-1.5h30v1.5c-1.2,0.3-2,0.6-2.4,1
		c-0.4,0.4-0.6,1.1-0.6,2.1v46.8c0,1,0.2,1.7,0.6,2.1c0.4,0.4,1.2,0.7,2.4,1v1.5h-21.7v-1.5c1.2-0.3,2-0.6,2.4-1
		c0.4-0.4,0.6-1.1,0.6-2.1v-33.7L175,530.8l-19.9-39.3L155.1,525.3L155.1,525.3z M236.4,529.9v-1.5c1.2-0.3,2-0.6,2.3-0.9
		c0.4-0.4,0.5-1.1,0.5-2.1v-46.8c0-1.1-0.2-1.8-0.5-2.1c-0.4-0.4-1.1-0.7-2.3-1v-1.5h22.7v1.5c-1.2,0.3-2,0.6-2.4,1
		s-0.6,1.1-0.6,2.1v46.8c0,1,0.2,1.7,0.6,2.1c0.4,0.4,1.2,0.7,2.4,1v1.5L236.4,529.9L236.4,529.9z M334.1,516.6c1,0,1.8-0.2,2.2-0.5
		c0.4-0.3,0.8-1,1.1-2.2h1.6v18.6h-1.6c-0.3-1.1-0.6-1.8-1.1-2.2c-0.4-0.3-1.1-0.5-2.2-0.5h-56.7v-1.5c1.2-0.3,2-0.5,2.3-0.9
		c0.4-0.4,0.5-1.1,0.5-2.1v-46.8c0-1.1-0.2-1.8-0.5-2.1c-0.3-0.4-1.1-0.7-2.3-1v-1.5h22.7v1.5c-1.2,0.3-2,0.6-2.4,1
		c-0.4,0.4-0.6,1.1-0.6,2.1v38.2H334.1L334.1,516.6z M400.4,516.6c1.1,0,1.8-0.2,2.2-0.5c0.4-0.3,0.8-1,1.1-2.2h1.6v18.6h-1.6
		c-0.3-1.1-0.7-1.8-1.1-2.2c-0.4-0.3-1.2-0.5-2.2-0.5h-56.7v-1.5c1.2-0.3,2-0.6,2.3-0.9c0.3-0.4,0.5-1.1,0.5-2.1v-46.8
		c0-1.1-0.2-1.8-0.5-2.1c-0.4-0.4-1.1-0.7-2.3-1v-1.5h22.7v1.5c-1.2,0.3-2,0.6-2.4,1c-0.4,0.4-0.6,1.1-0.6,2.1v38.2H400.4
		L400.4,516.6z M414.8,529.9v-1.5c1.2-0.3,2-0.5,2.3-0.9c0.4-0.4,0.5-1.1,0.5-2.1v-46.8c0-1.1-0.2-1.8-0.5-2.1
		c-0.3-0.4-1.1-0.7-2.3-1v-1.5h22.7v1.5c-1.2,0.3-2,0.6-2.4,1c-0.4,0.4-0.6,1.1-0.6,2.1v46.8c0,1,0.2,1.7,0.6,2.1
		c0.4,0.4,1.2,0.7,2.4,1v1.5L414.8,529.9L414.8,529.9z M497.3,531c-10.6,0-19.3-2.8-26.2-8.6c-6.9-5.7-10.3-12.8-10.3-21.4
		c0-8.6,3.4-15.8,10.3-21.4c6.8-5.6,15.6-8.5,26.3-8.5c10.6,0,19.4,2.8,26.2,8.5c6.8,5.6,10.3,12.8,10.3,21.4
		c0,8.6-3.4,15.7-10.3,21.4C516.6,528.1,507.9,531,497.3,531L497.3,531z M478.9,501.1c0,5,1.7,9,5,12c3.3,3,7.8,4.5,13.5,4.5
		c5.6,0,10-1.5,13.3-4.5c3.3-3,5-7,5-12c0-4.9-1.7-8.9-5.1-11.9c-3.4-3-7.8-4.6-13.4-4.6c-5.5,0-9.9,1.5-13.3,4.6
		C480.6,492.2,478.9,496.2,478.9,501.1L478.9,501.1z M556.5,525.3c0,1.1,0.2,1.8,0.5,2.1c0.3,0.4,1.1,0.7,2.3,0.9v1.5h-20.2v-1.5
		c1.2-0.3,2-0.6,2.3-0.9s0.5-1.1,0.5-2.1v-46.8c0-1.1-0.2-1.8-0.5-2.1c-0.3-0.4-1.1-0.7-2.3-1v-1.5h26.3v1.5
		c-0.6,0.2-1.2,0.4-1.7,0.8c-0.4,0.3-0.6,0.7-0.6,1.1c0,0.4,0.4,1,1.3,1.9l0.6,0.6l25.2,25.8v-27c0-1-0.2-1.7-0.5-2.1
		c-0.4-0.4-1.2-0.7-2.4-1v-1.5h20.6v1.5c-1.2,0.3-2,0.6-2.4,1c-0.4,0.4-0.6,1.1-0.6,2.1v46.8c0,1,0.2,1.7,0.6,2.1
		c0.4,0.4,1.2,0.7,2.4,1v1.5h-21.7v-1.5c0.6-0.1,1.2-0.4,1.7-0.7c0.4-0.3,0.6-0.7,0.6-1.1c0-0.4-0.5-1.2-1.5-2.3
		c-0.1-0.1-0.2-0.1-0.2-0.2l-30.1-30.7V525.3z M637.3,508.6h20.1L647,484L637.3,508.6L637.3,508.6z M662.5,529.9v-1.5
		c0.6-0.1,1.2-0.4,1.6-0.7c0.4-0.3,0.5-0.7,0.5-1.2c0-0.3-0.1-0.6-0.2-0.9c-0.2-0.5-0.4-1-0.6-1.5l-2.4-6.1h-27.9l-2.5,6.1
		c-0.1,0.3-0.3,0.7-0.3,1c-0.1,0.3-0.1,0.6-0.1,0.9c0,0.7,0.2,1.2,0.6,1.6c0.5,0.5,1.1,0.8,1.8,0.9v1.5h-20.4v-1.5
		c2-1,3.7-3.3,5-6.8c0.2-0.4,0.3-0.7,0.3-0.8l15.8-40.4c0.3-0.8,0.6-1.5,0.7-2.1c0.1-0.4,0.2-0.8,0.3-1.2c0-0.6-0.1-1-0.4-1.2
		c-0.3-0.3-0.7-0.4-1.4-0.5v-1.5h29.9v1.5c-0.6,0.1-1.1,0.2-1.3,0.5c-0.3,0.2-0.4,0.7-0.4,1.2c0,0.2,0.1,0.6,0.3,1.2
		c0.2,0.6,0.5,1.3,0.8,2.1l19.1,44.9c0,0,0,0.1,0.1,0.2c0.6,1.5,1.6,2.5,2.9,2.9v1.5L662.5,529.9L662.5,529.9z M691.7,529.9v-1.5
		c1.2-0.3,2-0.5,2.3-0.9c0.4-0.4,0.5-1.1,0.5-2.1v-46.8c0-1.1-0.2-1.8-0.5-2.1c-0.3-0.4-1.1-0.7-2.3-1v-1.5h22.7v1.5
		c-1.2,0.3-2,0.6-2.4,1c-0.4,0.4-0.5,1.1-0.5,2.1v46.8c0,1,0.2,1.7,0.5,2.1c0.4,0.4,1.2,0.7,2.4,1v1.5L691.7,529.9L691.7,529.9z
		 M730.9,529.9v-1.5c1.2-0.3,2-0.6,2.3-0.9c0.4-0.4,0.5-1.1,0.5-2.1v-46.8c0-1.1-0.2-1.8-0.5-2.1c-0.4-0.4-1.1-0.7-2.3-1v-1.5h41.7
		c7.5,0,13.3,1.5,17.4,4.7c4.2,3.1,6.2,7.5,6.2,13.1c0,4.3-1.3,8-3.9,10.9c-2.6,2.9-6.4,5.1-11.5,6.5l8.9,13.1
		c1.6,2.4,2.8,4,3.8,4.8c0.9,0.8,2,1.3,3.1,1.5v1.5h-24.1l0.1-1.5c0.5-0.1,1-0.4,1.4-0.7c0.3-0.3,0.5-0.7,0.5-1.1
		c0-0.5-0.3-1.2-1.1-2.1c-0.3-0.4-0.5-0.7-0.7-0.9l-9.8-14.4h-12.3v16.1c0,1,0.2,1.7,0.5,2.1c0.4,0.4,1.2,0.7,2.4,1v1.5L730.9,529.9
		L730.9,529.9z M750.7,485.2v12.7h14.7c4.7,0,8.1-0.5,10.2-1.5c2.1-1,3.1-2.7,3.1-4.9c0-2.3-1-3.9-2.9-4.9c-2-0.9-5.6-1.4-10.8-1.4
		L750.7,485.2L750.7,485.2z M857.9,516.6c1.1,0,1.8-0.2,2.2-0.5c0.4-0.3,0.8-1,1.1-2.2h1.6v18.6h-1.6c-0.3-1.1-0.7-1.8-1.1-2.2
		c-0.4-0.3-1.1-0.5-2.2-0.5h-54.2v-1.5c1.2-0.3,2-0.5,2.3-0.9c0.3-0.4,0.5-1.1,0.5-2.1v-46.8c0-1.1-0.2-1.8-0.5-2.1
		c-0.3-0.4-1.1-0.7-2.3-1v-1.5H858c1.1,0,1.8-0.2,2.2-0.6c0.4-0.4,0.7-1.1,1-2.2h1.6v18.6h-1.6c-0.3-1.1-0.6-1.8-1-2.2
		c-0.4-0.3-1.1-0.5-2.2-0.5h-34.6v7.9h20.7c1.1,0,1.8-0.2,2.3-0.5c0.4-0.3,0.8-1,1.2-2.2h1.6v17.4h-1.6c-0.3-1.1-0.7-1.8-1.2-2.2
		c-0.5-0.3-1.2-0.5-2.2-0.5h-20.7v9.6L857.9,516.6L857.9,516.6L857.9,516.6L857.9,516.6z"/>
</g>
</svg>
