<svg width="524" height="73.501" viewBox="0 0 524 73.501" xmlns="http://www.w3.org/2000/svg"><g id="svgGroup" stroke-linecap="round" fill-rule="evenodd" font-size="9pt" stroke="#000" stroke-width="1mm" fill="#ffffff" style="stroke:#000;stroke-width:1mm;fill:#ffffff"><path d="M 22 62.001 L 22.2 62.201 A 11.028 11.028 0 0 1 21.849 65.041 A 8.763 8.763 0 0 1 20.55 67.851 Q 18.9 70.201 16.35 71.451 Q 13.8 72.701 11 72.701 A 11.382 11.382 0 0 1 5.929 71.49 A 13.251 13.251 0 0 1 5.75 71.401 Q 3.2 70.101 1.6 67.351 A 10.933 10.933 0 0 1 0.452 64.432 Q 0.127 63.104 0.036 61.551 A 21.322 21.322 0 0 1 0 60.301 A 27.019 27.019 0 0 1 0.397 55.803 A 37.216 37.216 0 0 1 1.45 51.351 Q 2.9 46.501 5.1 41.451 Q 7.3 36.401 9.6 31.551 Q 11.9 26.701 13.75 22.451 A 49.265 49.265 0 0 0 14.962 19.411 Q 15.501 17.905 15.85 16.559 A 23.444 23.444 0 0 0 16.2 15.001 A 7.665 7.665 0 0 0 13.583 13.797 A 7.186 7.186 0 0 0 11.9 13.601 A 6.324 6.324 0 0 0 9.566 14.065 A 8.804 8.804 0 0 0 8.05 14.851 A 8.596 8.596 0 0 0 6.507 16.139 Q 5.409 17.279 4.4 19.001 L 3.7 18.701 A 22.511 22.511 0 0 1 4.871 11.826 A 20.639 20.639 0 0 1 5.9 9.351 A 19.708 19.708 0 0 1 8.87 4.903 A 17.099 17.099 0 0 1 11.45 2.551 Q 14.9 0.001 19 0.001 A 12.194 12.194 0 0 1 23.756 1.018 Q 25.43 1.722 27.139 2.915 A 25.321 25.321 0 0 1 28.7 4.101 A 23.362 23.362 0 0 1 32.197 7.732 Q 35.204 11.549 37.907 17.507 A 73.969 73.969 0 0 1 37.95 17.601 A 65.422 65.422 0 0 1 40.677 24.843 Q 41.885 28.672 42.916 33.211 A 160.811 160.811 0 0 1 44.8 43.001 Q 48.6 30.701 53 22.401 A 81.6 81.6 0 0 1 56.335 16.654 Q 59.144 12.263 62.05 9.201 A 41.729 41.729 0 0 1 65.74 5.732 Q 67.733 4.088 69.708 2.957 A 22.137 22.137 0 0 1 71.25 2.151 Q 75.8 0.001 79.9 0.001 A 17.809 17.809 0 0 1 86.003 1.027 A 16.42 16.42 0 0 1 89.05 2.501 A 19.752 19.752 0 0 1 94.169 6.982 A 18.533 18.533 0 0 1 95.45 8.801 A 16.736 16.736 0 0 1 97.117 12.304 A 12.887 12.887 0 0 1 97.8 16.401 Q 95.3 15.701 92.85 15.401 A 39.671 39.671 0 0 0 88.75 15.107 A 35.76 35.76 0 0 0 88.1 15.101 A 31.881 31.881 0 0 0 84.561 15.291 A 28.303 28.303 0 0 0 83.7 15.401 Q 82.8 20.001 81.8 25.651 Q 80.8 31.301 80.05 37.001 Q 79.3 42.701 79.3 47.501 A 39.542 39.542 0 0 0 79.418 50.657 Q 79.542 52.193 79.794 53.498 A 17.104 17.104 0 0 0 80.3 55.501 A 6.765 6.765 0 0 0 80.872 56.82 Q 81.905 58.601 83.8 58.601 Q 85.194 58.601 86.626 57.538 A 8.32 8.32 0 0 0 87.05 57.201 Q 88.7 55.801 89.5 52.901 L 90.2 53.201 Q 90.2 58.479 88.793 62.319 A 17.077 17.077 0 0 1 88 64.151 A 18.88 18.88 0 0 1 85.836 67.536 A 14.055 14.055 0 0 1 82.35 70.651 A 14.663 14.663 0 0 1 78.78 72.288 A 12.138 12.138 0 0 1 75.3 72.801 A 11.47 11.47 0 0 1 69.752 71.348 A 13.892 13.892 0 0 1 69.15 71.001 A 10.996 10.996 0 0 1 66.088 68.17 Q 65.145 66.915 64.4 65.301 A 17.499 17.499 0 0 1 63.235 61.769 Q 62.838 59.99 62.689 57.908 A 36.622 36.622 0 0 1 62.6 55.301 A 49.627 49.627 0 0 1 62.864 50.338 Q 63.163 47.371 63.8 44.051 Q 65 37.801 66.95 31.501 Q 68.9 25.201 71.2 20.101 A 39.418 39.418 0 0 0 62.876 27.645 A 50.269 50.269 0 0 0 59.1 32.801 A 81.827 81.827 0 0 0 53.693 42.736 A 105.116 105.116 0 0 0 50.1 51.601 Q 50.9 54.801 51.4 57.601 A 34.434 34.434 0 0 1 51.767 60.196 Q 51.898 61.494 51.9 62.663 A 21.252 21.252 0 0 1 51.9 62.701 A 14.889 14.889 0 0 1 51.663 65.442 Q 51.195 67.94 49.8 69.601 A 6.11 6.11 0 0 1 47.369 71.31 Q 46.336 71.73 45.027 71.927 A 17.038 17.038 0 0 1 42.5 72.101 A 16.351 16.351 0 0 1 40.045 71.929 Q 38.792 71.738 37.792 71.335 A 6.384 6.384 0 0 1 35.75 70.051 A 6.703 6.703 0 0 1 33.857 66.662 A 10.211 10.211 0 0 1 33.6 64.301 A 16.448 16.448 0 0 1 33.763 62.067 Q 33.918 60.937 34.221 59.685 A 30.627 30.627 0 0 1 34.45 58.801 Q 35.3 55.701 36.9 52.101 A 233.456 233.456 0 0 0 35.037 46.835 Q 33.881 43.683 32.5 40.151 A 80.913 80.913 0 0 0 29.823 34.093 Q 28.339 31.056 26.48 27.798 A 137.965 137.965 0 0 0 25.2 25.601 Q 23.8 31.501 22.35 37.351 Q 20.9 43.201 19.95 48.151 Q 19.266 51.713 19.075 54.473 A 29.346 29.346 0 0 0 19 56.501 A 15.059 15.059 0 0 0 19.105 58.37 Q 19.349 60.301 20.152 61.205 A 2.355 2.355 0 0 0 22 62.001 Z M 281.9 35.701 L 281.3 35.301 A 5.819 5.819 0 0 1 281.289 34.938 Q 281.289 33.456 282 31.501 A 14.183 14.183 0 0 1 283.584 28.424 A 17.162 17.162 0 0 1 284.45 27.251 Q 286.1 25.201 288.7 23.801 A 11.408 11.408 0 0 1 292.09 22.641 A 15.691 15.691 0 0 1 294.9 22.401 A 14.601 14.601 0 0 1 297.874 22.684 Q 300.977 23.33 302.75 25.451 A 10.894 10.894 0 0 1 305.238 31.559 A 14.17 14.17 0 0 1 305.3 32.901 Q 305.3 34.501 305 36.001 A 40.238 40.238 0 0 1 307.679 32.497 A 51.658 51.658 0 0 1 310.2 29.751 Q 313.3 26.601 317.05 24.501 A 16.317 16.317 0 0 1 322.08 22.649 A 14.968 14.968 0 0 1 324.8 22.401 A 11.445 11.445 0 0 1 327.085 22.612 Q 329.952 23.197 331.2 25.401 Q 332.734 28.108 332.884 32.036 A 22.692 22.692 0 0 1 332.9 32.901 A 44.666 44.666 0 0 1 332.583 38.1 A 56.093 56.093 0 0 1 332 41.901 Q 331.1 46.701 330.2 51.151 A 57.474 57.474 0 0 0 329.688 54.039 Q 329.476 55.457 329.38 56.688 A 24.673 24.673 0 0 0 329.3 58.601 A 10.396 10.396 0 0 0 329.381 59.96 Q 329.731 62.601 331.6 62.601 Q 332.8 62.601 333.7 61.851 A 6.496 6.496 0 0 0 334.204 61.387 Q 334.694 60.882 334.9 60.401 L 335.6 60.701 A 11.272 11.272 0 0 1 334.887 64.752 A 10.415 10.415 0 0 1 333.55 67.201 Q 331.5 70.001 328.4 71.551 A 14.584 14.584 0 0 1 324.288 72.917 A 13.161 13.161 0 0 1 322.1 73.101 Q 318.2 73.101 315.2 70.401 A 8.085 8.085 0 0 1 313.072 67.189 Q 312.2 64.889 312.2 61.601 A 31.548 31.548 0 0 1 312.5 57.368 A 41.364 41.364 0 0 1 313.15 53.801 Q 314.1 49.601 315 45.701 Q 315.9 41.801 315.9 39.301 A 6.667 6.667 0 0 0 315.846 38.427 Q 315.728 37.535 315.35 36.951 Q 314.865 36.201 313.719 36.112 A 4.142 4.142 0 0 0 313.4 36.101 A 6.019 6.019 0 0 0 311.379 36.474 Q 310.547 36.77 309.665 37.301 A 14.418 14.418 0 0 0 308.35 38.201 A 16.519 16.519 0 0 0 305.085 41.56 A 20.987 20.987 0 0 0 303.65 43.801 Q 301.7 47.301 301.7 51.501 Q 301.7 54.201 302.35 56.701 Q 303 59.201 303 62.101 Q 303 67.501 300.2 70.301 A 9.83 9.83 0 0 1 297.402 72.299 A 8.663 8.663 0 0 1 293.7 73.101 A 8.924 8.924 0 0 1 288.199 71.19 A 12.291 12.291 0 0 1 287 70.151 Q 284 67.201 284 61.901 A 23.034 23.034 0 0 1 284.134 59.492 Q 284.306 57.857 284.7 56.001 Q 285.4 52.701 286.25 49.301 Q 287.1 45.901 287.8 42.901 Q 288.484 39.967 288.5 38.085 A 10.515 10.515 0 0 0 288.5 38.001 Q 288.5 36.589 288.102 35.601 A 3.791 3.791 0 0 0 287.7 34.851 Q 286.9 33.701 285.6 33.701 Q 283.966 33.701 282.054 35.549 A 12.872 12.872 0 0 0 281.9 35.701 Z M 521.4 53.801 L 522.1 54.301 A 21.004 21.004 0 0 1 521.717 58.412 A 15.067 15.067 0 0 1 519.95 63.151 Q 517.8 66.801 514.3 69.101 Q 510.8 71.401 506.65 72.451 Q 502.5 73.501 498.4 73.501 Q 492.241 73.501 487.861 71.4 A 17.098 17.098 0 0 1 486.3 70.551 Q 481.5 67.601 479.1 62.751 Q 476.7 57.901 476.7 52.301 Q 476.7 47.001 478.75 41.651 Q 480.8 36.301 484.75 31.901 A 30.173 30.173 0 0 1 493.999 24.971 A 34.389 34.389 0 0 1 494.35 24.801 Q 500 22.101 507.1 22.101 A 31.155 31.155 0 0 1 511.674 22.413 Q 517.039 23.212 519.95 26.051 A 13.106 13.106 0 0 1 523.357 31.4 A 13.452 13.452 0 0 1 524 35.601 Q 524 40.401 521.45 44.451 Q 518.9 48.501 514.7 50.951 Q 510.5 53.401 505.5 53.401 A 18.237 18.237 0 0 1 501.041 52.831 A 20.915 20.915 0 0 1 500.2 52.601 Q 497.5 51.801 494.9 50.101 A 21.494 21.494 0 0 0 495.426 53.482 Q 495.859 55.25 496.594 56.623 A 9.053 9.053 0 0 0 498.5 59.101 Q 501.6 61.901 505.9 61.901 Q 508.9 61.901 511.9 60.751 Q 514.9 59.601 517.45 57.751 Q 520 55.901 521.4 53.801 Z M 391.9 27.101 L 392.1 27.701 A 47.062 47.062 0 0 0 391.2 29.88 Q 390.45 31.826 389.7 34.201 A 117.388 117.388 0 0 0 387.753 41.119 A 130.149 130.149 0 0 0 387.5 42.151 A 97.598 97.598 0 0 0 386.056 49.26 A 88.43 88.43 0 0 0 385.9 50.251 Q 385.3 54.201 385.3 57.201 A 24.505 24.505 0 0 0 385.342 58.701 Q 385.472 60.808 386 61.751 A 3.646 3.646 0 0 0 386.381 62.312 Q 386.624 62.602 386.896 62.77 A 1.505 1.505 0 0 0 387.7 63.001 A 2.574 2.574 0 0 0 389.226 62.474 Q 390.03 61.895 390.755 60.677 A 10.342 10.342 0 0 0 390.8 60.601 L 391.6 61.001 Q 391.6 64.401 389.4 67.201 Q 387.2 70.001 383.9 71.651 A 15.892 15.892 0 0 1 380.188 72.985 A 13.476 13.476 0 0 1 377.3 73.301 Q 373.8 73.301 371.2 71.001 A 6.904 6.904 0 0 1 369.334 68.207 Q 368.6 66.263 368.6 63.501 L 368.6 62.501 Q 368.6 62.001 368.7 61.501 A 35.704 35.704 0 0 1 366.549 65.253 Q 364.411 68.48 361.95 70.351 A 15.812 15.812 0 0 1 359.02 72.139 Q 356.719 73.201 354.4 73.201 A 10.022 10.022 0 0 1 349.088 71.652 A 13.155 13.155 0 0 1 347.8 70.751 Q 345.015 68.549 343.198 64.451 A 25.565 25.565 0 0 1 342.8 63.501 Q 341.121 59.258 340.926 53.454 A 46.239 46.239 0 0 1 340.9 51.901 Q 340.9 44.901 342.85 39.401 A 33.493 33.493 0 0 1 345.234 34.109 A 26.228 26.228 0 0 1 348 30.101 A 25.641 25.641 0 0 1 351.542 26.607 A 20.378 20.378 0 0 1 355 24.351 Q 358.8 22.401 362.4 22.401 Q 366.4 22.401 369.6 24.851 A 10.412 10.412 0 0 1 372.368 28.135 Q 373.14 29.529 373.658 31.284 A 21.076 21.076 0 0 1 374 32.601 Q 374.3 30.901 374.45 29.501 Q 374.58 28.289 374.597 27.751 A 4.686 4.686 0 0 0 374.6 27.601 A 4.379 4.379 0 0 1 375.249 25.385 Q 375.765 24.567 376.689 23.972 A 6.557 6.557 0 0 1 377.35 23.601 A 12.862 12.862 0 0 1 382.36 22.324 A 15.24 15.24 0 0 1 383.2 22.301 Q 386 22.301 388.5 23.401 A 6.006 6.006 0 0 1 391.812 26.86 A 7.392 7.392 0 0 1 391.9 27.101 Z M 429.7 35.701 L 429.1 35.301 A 5.819 5.819 0 0 1 429.089 34.938 Q 429.089 33.456 429.8 31.501 A 13.509 13.509 0 0 1 431.325 28.547 A 16.637 16.637 0 0 1 432.3 27.251 A 13.436 13.436 0 0 1 435.235 24.64 A 16.407 16.407 0 0 1 436.65 23.801 Q 439.3 22.401 442.9 22.401 A 14.491 14.491 0 0 1 445.787 22.669 Q 448.911 23.305 450.6 25.451 A 11.181 11.181 0 0 1 452.94 31.471 A 14.42 14.42 0 0 1 453 32.801 Q 453 33.501 452.95 34.251 A 19.586 19.586 0 0 1 452.824 35.525 A 17.879 17.879 0 0 1 452.8 35.701 A 51.173 51.173 0 0 1 455.52 31.296 Q 457.866 27.92 460.35 25.751 Q 462.817 23.596 465.07 22.787 A 7.76 7.76 0 0 1 467.7 22.301 A 6.444 6.444 0 0 1 469.617 22.57 A 4.844 4.844 0 0 1 472.4 24.801 A 10.321 10.321 0 0 1 473.689 28.316 A 14.016 14.016 0 0 1 473.9 30.801 A 17.662 17.662 0 0 1 473.137 35.862 A 20.939 20.939 0 0 1 472.65 37.301 A 14.06 14.06 0 0 1 470.508 41.117 A 12.715 12.715 0 0 1 468.95 42.751 A 8.22 8.22 0 0 1 463.514 44.803 Q 463.412 44.805 463.309 44.805 A 10.821 10.821 0 0 1 463 44.801 L 462.6 44.601 A 7.124 7.124 0 0 0 462.314 42.805 A 5.138 5.138 0 0 0 460.9 40.501 A 5.78 5.78 0 0 0 459.368 39.449 A 4.885 4.885 0 0 0 457.3 39.001 A 5.604 5.604 0 0 0 454.256 39.928 Q 453.223 40.583 452.25 41.701 Q 450.349 43.885 449.986 47.641 A 19.348 19.348 0 0 0 449.9 49.501 A 31.549 31.549 0 0 0 450.121 53.146 A 40.652 40.652 0 0 0 450.6 56.201 Q 451.3 59.801 451.3 62.301 Q 451.3 65.301 449.9 67.801 A 11.721 11.721 0 0 1 447.778 70.573 A 10.498 10.498 0 0 1 446.3 71.751 Q 444.1 73.201 441.5 73.201 A 8.259 8.259 0 0 1 436.092 71.182 A 11.494 11.494 0 0 1 435.1 70.251 A 9.625 9.625 0 0 1 432.855 66.224 Q 432.421 64.725 432.327 62.929 A 19.499 19.499 0 0 1 432.3 61.901 A 26.836 26.836 0 0 1 432.415 59.492 Q 432.526 58.266 432.743 56.915 A 46 46 0 0 1 432.9 56.001 A 143.497 143.497 0 0 1 434.275 49.358 A 155.573 155.573 0 0 1 434.3 49.251 Q 435.1 45.801 435.7 42.751 Q 436.3 39.701 436.3 37.701 A 9.557 9.557 0 0 0 436.213 36.371 Q 436.045 35.176 435.55 34.351 A 3.228 3.228 0 0 0 435.065 33.719 A 2.009 2.009 0 0 0 433.6 33.101 A 3.243 3.243 0 0 0 432.042 33.529 Q 430.888 34.156 429.7 35.701 Z M 138.3 9.901 L 138.2 9.601 Q 139.3 6.401 142.1 4.601 A 11.271 11.271 0 0 1 145.671 3.064 A 10.323 10.323 0 0 1 148 2.801 A 8.588 8.588 0 0 1 153.639 4.903 A 11.377 11.377 0 0 1 154.25 5.451 A 7.702 7.702 0 0 1 156.031 8.19 Q 157 10.619 157 14.301 Q 157 16.827 156.531 20.086 A 67.183 67.183 0 0 1 156.2 22.151 A 253.129 253.129 0 0 1 155.083 28.072 A 307.649 307.649 0 0 1 154.3 31.851 Q 153.2 37.001 152.05 42.001 Q 150.9 47.001 150.1 51.201 Q 149.577 53.946 149.396 56.05 A 24.051 24.051 0 0 0 149.3 58.101 Q 149.3 60.901 150.1 61.951 Q 150.9 63.001 151.9 63.001 Q 153 63.001 154 62.151 Q 155 61.301 155.3 60.601 L 156.1 60.801 A 11.832 11.832 0 0 1 155.088 65.372 A 11.317 11.317 0 0 1 154.05 67.201 Q 152.1 70.001 149.15 71.601 Q 146.2 73.201 143 73.201 A 10.993 10.993 0 0 1 138.109 72.034 A 12.946 12.946 0 0 1 137.75 71.851 A 9.295 9.295 0 0 1 134.752 69.292 A 12.468 12.468 0 0 1 133.6 67.501 A 12.406 12.406 0 0 1 132.506 64.55 Q 132.166 63.135 132.055 61.478 A 24.978 24.978 0 0 1 132 59.801 A 37.726 37.726 0 0 1 132.19 56.149 Q 132.363 54.372 132.695 52.395 A 72.042 72.042 0 0 1 133.15 49.951 A 358.454 358.454 0 0 1 135.044 41.222 A 406.1 406.1 0 0 1 135.75 38.201 A 266.56 266.56 0 0 0 138.161 27.027 A 243.428 243.428 0 0 0 138.3 26.301 Q 139.308 20.984 139.308 16.76 A 34.168 34.168 0 0 0 139.3 16.001 Q 139.3 12.635 138.687 10.801 A 5.335 5.335 0 0 0 138.3 9.901 Z M 168.9 9.901 L 168.8 9.601 Q 169.9 6.401 172.7 4.601 A 11.271 11.271 0 0 1 176.271 3.064 A 10.323 10.323 0 0 1 178.6 2.801 A 8.588 8.588 0 0 1 184.239 4.903 A 11.377 11.377 0 0 1 184.85 5.451 A 7.702 7.702 0 0 1 186.631 8.19 Q 187.6 10.619 187.6 14.301 Q 187.6 16.827 187.131 20.086 A 67.183 67.183 0 0 1 186.8 22.151 A 253.129 253.129 0 0 1 185.683 28.072 A 307.649 307.649 0 0 1 184.9 31.851 Q 183.8 37.001 182.65 42.001 Q 181.5 47.001 180.7 51.201 Q 180.177 53.946 179.996 56.05 A 24.051 24.051 0 0 0 179.9 58.101 Q 179.9 60.901 180.7 61.951 Q 181.5 63.001 182.5 63.001 Q 183.6 63.001 184.6 62.151 Q 185.6 61.301 185.9 60.601 L 186.7 60.801 A 11.832 11.832 0 0 1 185.688 65.372 A 11.317 11.317 0 0 1 184.65 67.201 Q 182.7 70.001 179.75 71.601 Q 176.8 73.201 173.6 73.201 A 10.993 10.993 0 0 1 168.709 72.034 A 12.946 12.946 0 0 1 168.35 71.851 A 9.295 9.295 0 0 1 165.352 69.292 A 12.468 12.468 0 0 1 164.2 67.501 A 12.406 12.406 0 0 1 163.106 64.55 Q 162.766 63.135 162.655 61.478 A 24.978 24.978 0 0 1 162.6 59.801 A 37.726 37.726 0 0 1 162.79 56.149 Q 162.963 54.372 163.295 52.395 A 72.042 72.042 0 0 1 163.75 49.951 A 358.454 358.454 0 0 1 165.644 41.222 A 406.1 406.1 0 0 1 166.35 38.201 A 266.56 266.56 0 0 0 168.761 27.027 A 243.428 243.428 0 0 0 168.9 26.301 Q 169.908 20.984 169.908 16.76 A 34.168 34.168 0 0 0 169.9 16.001 Q 169.9 12.635 169.287 10.801 A 5.335 5.335 0 0 0 168.9 9.901 Z M 247.1 73.501 Q 239.6 73.501 234.7 70.501 Q 229.8 67.501 227.45 62.551 Q 225.1 57.601 225.1 52.001 A 30.298 30.298 0 0 1 226.8 42.104 A 34.448 34.448 0 0 1 227.05 41.401 Q 229 36.101 232.75 31.751 Q 236.5 27.401 241.9 24.751 A 25.682 25.682 0 0 1 249.677 22.414 A 33.047 33.047 0 0 1 254.3 22.101 A 30.357 30.357 0 0 1 259.552 22.529 Q 263.619 23.244 266.65 25.151 Q 271.5 28.201 273.85 33.201 Q 276.2 38.201 276.2 43.901 A 30.152 30.152 0 0 1 274.693 53.203 A 34.536 34.536 0 0 1 274.3 54.351 Q 272.4 59.601 268.65 63.951 Q 264.9 68.301 259.5 70.901 A 26.027 26.027 0 0 1 251.774 73.186 A 33.632 33.632 0 0 1 247.1 73.501 Z M 101.1 35.701 L 100.4 35.301 A 14.768 14.768 0 0 1 101.278 31.481 A 12.291 12.291 0 0 1 102.95 28.451 Q 105.1 25.601 108.25 24.001 A 15.197 15.197 0 0 1 111.583 22.752 A 12.457 12.457 0 0 1 114.5 22.401 Q 118.3 22.401 121.1 24.851 Q 123.313 26.787 123.777 30.63 A 18.144 18.144 0 0 1 123.9 32.801 A 25.76 25.76 0 0 1 123.491 37.283 A 31.672 31.672 0 0 1 122.95 39.751 Q 122 43.401 120.75 47.001 Q 119.5 50.601 118.55 53.701 Q 117.6 56.801 117.6 59.001 A 7.604 7.604 0 0 0 117.653 59.932 Q 117.799 61.113 118.35 61.701 Q 119.1 62.501 120 62.501 Q 120.9 62.501 121.75 61.951 A 4.623 4.623 0 0 0 122.387 61.46 Q 122.733 61.139 122.955 60.776 A 2.822 2.822 0 0 0 123 60.701 L 123.7 60.901 A 11.818 11.818 0 0 1 123.154 64.551 A 10.264 10.264 0 0 1 121.75 67.351 Q 119.8 70.101 116.9 71.651 A 12.83 12.83 0 0 1 112.342 73.115 A 12.195 12.195 0 0 1 110.9 73.201 A 10.207 10.207 0 0 1 104.143 70.661 A 13.046 13.046 0 0 1 103.9 70.451 A 8.336 8.336 0 0 1 101.624 67.001 Q 101.122 65.627 100.926 63.922 A 20.33 20.33 0 0 1 100.8 61.601 A 22.839 22.839 0 0 1 101.27 56.901 A 20.094 20.094 0 0 1 101.75 55.051 Q 102.7 52.001 103.95 49.101 A 84.191 84.191 0 0 0 105.656 44.835 A 74.436 74.436 0 0 0 106.15 43.451 A 17.036 17.036 0 0 0 107.051 39.227 A 15.487 15.487 0 0 0 107.1 38.001 Q 107.1 35.949 106.515 34.884 A 2.663 2.663 0 0 0 106.3 34.551 A 3.163 3.163 0 0 0 105.743 33.975 A 2.122 2.122 0 0 0 104.4 33.501 Q 103.136 33.501 101.927 34.717 A 8.414 8.414 0 0 0 101.1 35.701 Z M 194.8 35.701 L 194.1 35.301 A 14.768 14.768 0 0 1 194.978 31.481 A 12.291 12.291 0 0 1 196.65 28.451 Q 198.8 25.601 201.95 24.001 A 15.197 15.197 0 0 1 205.283 22.752 A 12.457 12.457 0 0 1 208.2 22.401 Q 212 22.401 214.8 24.851 Q 217.013 26.787 217.477 30.63 A 18.144 18.144 0 0 1 217.6 32.801 A 25.76 25.76 0 0 1 217.191 37.283 A 31.672 31.672 0 0 1 216.65 39.751 Q 215.7 43.401 214.45 47.001 Q 213.2 50.601 212.25 53.701 Q 211.3 56.801 211.3 59.001 A 7.604 7.604 0 0 0 211.353 59.932 Q 211.499 61.113 212.05 61.701 Q 212.8 62.501 213.7 62.501 Q 214.6 62.501 215.45 61.951 A 4.623 4.623 0 0 0 216.087 61.46 Q 216.433 61.139 216.655 60.776 A 2.822 2.822 0 0 0 216.7 60.701 L 217.4 60.901 A 11.818 11.818 0 0 1 216.854 64.551 A 10.264 10.264 0 0 1 215.45 67.351 Q 213.5 70.101 210.6 71.651 A 12.83 12.83 0 0 1 206.042 73.115 A 12.195 12.195 0 0 1 204.6 73.201 A 10.207 10.207 0 0 1 197.843 70.661 A 13.046 13.046 0 0 1 197.6 70.451 A 8.336 8.336 0 0 1 195.324 67.001 Q 194.822 65.627 194.626 63.922 A 20.33 20.33 0 0 1 194.5 61.601 A 22.839 22.839 0 0 1 194.97 56.901 A 20.094 20.094 0 0 1 195.45 55.051 Q 196.4 52.001 197.65 49.101 A 84.191 84.191 0 0 0 199.356 44.835 A 74.436 74.436 0 0 0 199.85 43.451 A 17.036 17.036 0 0 0 200.751 39.227 A 15.487 15.487 0 0 0 200.8 38.001 Q 200.8 35.949 200.215 34.884 A 2.663 2.663 0 0 0 200 34.551 A 3.163 3.163 0 0 0 199.443 33.975 A 2.122 2.122 0 0 0 198.1 33.501 Q 196.836 33.501 195.627 34.717 A 8.414 8.414 0 0 0 194.8 35.701 Z M 399.3 35.701 L 398.6 35.301 A 14.768 14.768 0 0 1 399.478 31.481 A 12.291 12.291 0 0 1 401.15 28.451 Q 403.3 25.601 406.45 24.001 A 15.197 15.197 0 0 1 409.783 22.752 A 12.457 12.457 0 0 1 412.7 22.401 Q 416.5 22.401 419.3 24.851 Q 421.513 26.787 421.977 30.63 A 18.144 18.144 0 0 1 422.1 32.801 A 25.76 25.76 0 0 1 421.691 37.283 A 31.672 31.672 0 0 1 421.15 39.751 Q 420.2 43.401 418.95 47.001 Q 417.7 50.601 416.75 53.701 Q 415.8 56.801 415.8 59.001 A 7.604 7.604 0 0 0 415.853 59.932 Q 415.999 61.113 416.55 61.701 Q 417.3 62.501 418.2 62.501 Q 419.1 62.501 419.95 61.951 A 4.623 4.623 0 0 0 420.587 61.46 Q 420.933 61.139 421.155 60.776 A 2.822 2.822 0 0 0 421.2 60.701 L 421.9 60.901 A 11.818 11.818 0 0 1 421.354 64.551 A 10.264 10.264 0 0 1 419.95 67.351 Q 418 70.101 415.1 71.651 A 12.83 12.83 0 0 1 410.542 73.115 A 12.195 12.195 0 0 1 409.1 73.201 A 10.207 10.207 0 0 1 402.343 70.661 A 13.046 13.046 0 0 1 402.1 70.451 A 8.336 8.336 0 0 1 399.824 67.001 Q 399.322 65.627 399.126 63.922 A 20.33 20.33 0 0 1 399 61.601 A 22.839 22.839 0 0 1 399.47 56.901 A 20.094 20.094 0 0 1 399.95 55.051 Q 400.9 52.001 402.15 49.101 A 84.191 84.191 0 0 0 403.856 44.835 A 74.436 74.436 0 0 0 404.35 43.451 A 17.036 17.036 0 0 0 405.251 39.227 A 15.487 15.487 0 0 0 405.3 38.001 Q 405.3 35.949 404.715 34.884 A 2.663 2.663 0 0 0 404.5 34.551 A 3.163 3.163 0 0 0 403.943 33.975 A 2.122 2.122 0 0 0 402.6 33.501 Q 401.336 33.501 400.127 34.717 A 8.414 8.414 0 0 0 399.3 35.701 Z M 249.8 65.001 A 4.745 4.745 0 0 0 253.248 63.522 A 7.809 7.809 0 0 0 254.3 62.201 A 16.623 16.623 0 0 0 255.746 59.345 Q 256.317 57.908 256.737 56.211 A 31.037 31.037 0 0 0 257 55.051 Q 257.9 50.701 257.9 46.201 A 38.195 38.195 0 0 0 257.546 40.913 A 33.103 33.103 0 0 0 257.15 38.651 Q 256.543 35.777 255.444 33.755 A 11.697 11.697 0 0 0 254.9 32.851 A 5.784 5.784 0 0 0 253.791 31.593 A 4.241 4.241 0 0 0 251 30.601 A 4.586 4.586 0 0 0 247.911 31.806 Q 247.277 32.359 246.71 33.165 A 10.008 10.008 0 0 0 246.55 33.401 A 16.448 16.448 0 0 0 245.024 36.355 Q 244.278 38.216 243.8 40.501 Q 242.9 44.801 242.9 49.401 A 38.195 38.195 0 0 0 243.254 54.688 A 33.103 33.103 0 0 0 243.65 56.951 Q 244.257 59.825 245.356 61.847 A 11.697 11.697 0 0 0 245.9 62.751 A 5.784 5.784 0 0 0 247.009 64.008 A 4.241 4.241 0 0 0 249.8 65.001 Z M 361 60.601 A 3.688 3.688 0 0 0 362.798 60.082 Q 364.136 59.335 365.601 57.515 A 23.711 23.711 0 0 0 366.75 55.951 A 27.588 27.588 0 0 0 368.815 52.275 Q 370.691 48.31 372.2 42.601 Q 372.4 41.701 372.6 40.851 A 16.206 16.206 0 0 0 372.844 39.604 A 14.385 14.385 0 0 0 372.9 39.201 Q 371.3 35.501 369.55 33.951 A 7.781 7.781 0 0 0 368.414 33.104 Q 367.729 32.692 367.053 32.521 A 3.881 3.881 0 0 0 366.1 32.401 A 4.901 4.901 0 0 0 363.398 33.239 Q 362.674 33.708 361.984 34.439 A 10.866 10.866 0 0 0 361.45 35.051 A 18.285 18.285 0 0 0 359.391 38.247 Q 358.595 39.801 357.97 41.642 A 29.936 29.936 0 0 0 357.95 41.701 Q 356.6 45.701 356.6 49.701 Q 356.6 54.466 357.538 57.129 A 8.783 8.783 0 0 0 357.85 57.901 A 7.91 7.91 0 0 0 358.472 59.018 Q 358.849 59.574 359.274 59.935 A 2.606 2.606 0 0 0 361 60.601 Z M 114.836 18.881 A 10.675 10.675 0 0 0 117.9 19.301 Q 122.2 19.301 125.2 16.451 A 11.604 11.604 0 0 0 125.407 16.249 A 9.07 9.07 0 0 0 128.2 9.601 A 10.616 10.616 0 0 0 128.199 9.428 A 8.308 8.308 0 0 0 125.65 3.401 A 8.409 8.409 0 0 0 122.21 1.343 A 10.446 10.446 0 0 0 119.1 0.901 Q 114.8 0.901 111.8 3.801 A 11.922 11.922 0 0 0 111.615 3.983 A 9.229 9.229 0 0 0 108.8 10.701 A 10.571 10.571 0 0 0 108.802 10.931 A 8.134 8.134 0 0 0 111.35 16.851 A 8.447 8.447 0 0 0 114.836 18.881 Z M 208.536 18.881 A 10.675 10.675 0 0 0 211.6 19.301 Q 215.9 19.301 218.9 16.451 A 11.604 11.604 0 0 0 219.107 16.249 A 9.07 9.07 0 0 0 221.9 9.601 A 10.616 10.616 0 0 0 221.899 9.428 A 8.308 8.308 0 0 0 219.35 3.401 A 8.409 8.409 0 0 0 215.91 1.343 A 10.446 10.446 0 0 0 212.8 0.901 Q 208.5 0.901 205.5 3.801 A 11.922 11.922 0 0 0 205.315 3.983 A 9.229 9.229 0 0 0 202.5 10.701 A 10.571 10.571 0 0 0 202.502 10.931 A 8.134 8.134 0 0 0 205.05 16.851 A 8.447 8.447 0 0 0 208.536 18.881 Z M 413.036 18.881 A 10.675 10.675 0 0 0 416.1 19.301 Q 420.4 19.301 423.4 16.451 A 11.604 11.604 0 0 0 423.607 16.249 A 9.07 9.07 0 0 0 426.4 9.601 A 10.616 10.616 0 0 0 426.399 9.428 A 8.308 8.308 0 0 0 423.85 3.401 A 8.409 8.409 0 0 0 420.41 1.343 A 10.446 10.446 0 0 0 417.3 0.901 Q 413 0.901 410 3.801 A 11.922 11.922 0 0 0 409.815 3.983 A 9.229 9.229 0 0 0 407 10.701 A 10.571 10.571 0 0 0 407.002 10.931 A 8.134 8.134 0 0 0 409.55 16.851 A 8.447 8.447 0 0 0 413.036 18.881 Z M 500.7 46.501 A 9.037 9.037 0 0 0 503.017 46.218 A 6.698 6.698 0 0 0 505.9 44.651 Q 507.9 42.801 508.9 40.301 A 16.95 16.95 0 0 0 509.5 38.546 Q 509.747 37.655 509.841 36.856 A 8.13 8.13 0 0 0 509.9 35.901 A 6.72 6.72 0 0 0 509.651 34.032 A 5.358 5.358 0 0 0 508.6 32.051 A 4.251 4.251 0 0 0 505.763 30.547 A 6.124 6.124 0 0 0 505 30.501 Q 503.523 30.501 501.811 31.376 A 12.214 12.214 0 0 0 501.05 31.801 Q 498.9 33.101 497.2 36.251 A 14.768 14.768 0 0 0 496.133 38.831 Q 495.32 41.413 495 45.001 A 19.362 19.362 0 0 0 497.21 45.885 Q 498.361 46.26 499.405 46.407 A 9.321 9.321 0 0 0 500.7 46.501 Z" vector-effect="non-scaling-stroke"/></g></svg>