<svg id="Layer_1" data-name="Layer 1" xmlns="http://www.w3.org/2000/svg" xmlns:xlink="http://www.w3.org/1999/xlink" viewBox="0 0 681.48 608.23"><defs><style>.cls-1{fill:url(#linear-gradient);}.cls-2{fill:url(#linear-gradient-2);}.cls-3{fill:url(#linear-gradient-3);}.cls-4{fill:url(#linear-gradient-4);}.cls-5{fill:url(#linear-gradient-5);}.cls-6{fill:url(#linear-gradient-6);}.cls-7{fill:#488dcb;}.cls-8{fill:url(#linear-gradient-7);}.cls-9{fill:url(#linear-gradient-8);}.cls-10{fill:#10132c;}.cls-11{fill:#0a1531;}.cls-12{fill:none;stroke:#fff;stroke-opacity:0.1;stroke-width:13px;}.cls-13{fill:#fff;stroke:#000;}</style><linearGradient id="linear-gradient" x1="432.05" y1="499.74" x2="432.05" y2="260.26" gradientTransform="matrix(-1, 0, 0, 1, 632.15, -175.24)" gradientUnits="userSpaceOnUse"><stop offset="0" stop-color="#2738c6"/><stop offset="1" stop-color="#140944" stop-opacity="0"/></linearGradient><linearGradient id="linear-gradient-2" x1="528.01" y1="112.36" x2="528.01" y2="-127.12" gradientTransform="matrix(0, -1, -1, 0, 486.78, 740.82)" xlink:href="#linear-gradient"/><linearGradient id="linear-gradient-3" x1="425.88" y1="94.59" x2="425.88" y2="-144.88" gradientTransform="matrix(1, 0, 0, -1, 55.49, 378.32)" xlink:href="#linear-gradient"/><linearGradient id="linear-gradient-4" x1="329.92" y1="481.97" x2="329.92" y2="242.49" gradientTransform="matrix(0, 1, 1, 0, -174.92, 65.49)" xlink:href="#linear-gradient"/><linearGradient id="linear-gradient-5" x1="364.07" y1="256.39" x2="364.07" y2="16.91" gradientTransform="matrix(1, 0, 0, -1, 0, 607.28)" xlink:href="#linear-gradient"/><linearGradient id="linear-gradient-6" x1="493.86" y1="337.94" x2="493.86" y2="98.46" gradientTransform="matrix(-1, 0, 0, 1, 811.27, -80.6)" xlink:href="#linear-gradient"/><linearGradient id="linear-gradient-7" x1="636.46" y1="463.81" x2="39.96" y2="126.81" gradientTransform="matrix(1, 0, 0, -1, 0, 607.28)" gradientUnits="userSpaceOnUse"><stop offset="0" stop-color="#4353ff"/><stop offset="1" stop-color="#1a2e93"/></linearGradient><linearGradient id="linear-gradient-8" x1="159.73" y1="411.34" x2="630.27" y2="128.82" gradientTransform="matrix(1, 0, 0, -1, 0, 607.28)" gradientUnits="userSpaceOnUse"><stop offset="0" stop-color="#92c6f5"/><stop offset="1" stop-color="#a9d6f9"/></linearGradient></defs><rect class="cls-1" x="32.87" y="85.01" width="334.46" height="239.48" transform="translate(-85.71 221.3) rotate(-48.97)"/><rect class="cls-2" x="374.43" y="45.58" width="239.48" height="334.46" transform="translate(-40.2 275.59) rotate(-30)"/><rect class="cls-3" x="314.15" y="283.73" width="334.46" height="239.48" transform="matrix(0.66, -0.75, 0.75, 0.66, -138.98, 501.77)"/><rect class="cls-4" x="67.57" y="228.18" width="239.48" height="334.46" transform="translate(-172.61 146.63) rotate(-30)"/><rect class="cls-5" x="196.84" y="350.89" width="334.46" height="239.48"/><rect class="cls-6" x="150.18" y="17.86" width="334.46" height="239.48"/><circle class="cls-7" cx="345.82" cy="307.67" r="230.55"/><circle class="cls-8" cx="345.82" cy="307.67" r="228.11"/><circle class="cls-9" cx="345.82" cy="307.67" r="185.09"/><circle class="cls-10" cx="345.82" cy="307.67" r="181.84"/><circle class="cls-11" cx="345.82" cy="307.67" r="169.66"/><circle class="cls-10" cx="345.82" cy="307.67" r="56.83"/><circle class="cls-11" cx="345.82" cy="307.67" r="52.77"/><circle class="cls-12" cx="345.82" cy="307.67" r="43.83"/><path class="cls-13" d="M187.86,161.81l-.38-.56-.42.53-1.34,1.68a1.43,1.43,0,0,0-.33.9,1.4,1.4,0,0,0,.25.83l8.29,11.89-13.8-5h0a1.62,1.62,0,0,0-.82,0,1.36,1.36,0,0,0-.8.53l-.49.62a1.39,1.39,0,0,0-.34.91,1.49,1.49,0,0,0,.22.81h0l8,12.35-13.45-5.43a1.34,1.34,0,0,0-.88-.06h0a1.46,1.46,0,0,0-.8.54h0l-1.43,1.78-.42.53.63.25,19.88,7.73.35.13.22-.29,1.55-1.93.22-.28-.19-.3-8.58-13.22,14.77,5.43.34.12.22-.28,1.55-1.93.23-.29-.21-.3Z" transform="translate(0 0)"/><path class="cls-13" d="M208,142.77l-.34-.37-.37.34-2,1.86-.37.34.34.37,5.79,6.32-7.36,6.74L197.83,152l-.34-.37-.37.34-2,1.86-.37.34.34.37,13.74,15,.34.36.37-.33,2-1.86.37-.34-.34-.37-5.91-6.47,7.36-6.73,5.91,6.46.34.37.37-.33,2-1.86.37-.34-.34-.37Z" transform="translate(0 0)"/><path class="cls-13" d="M237,147.36h0a11.32,11.32,0,0,0,3.09-3.08,9.47,9.47,0,0,0,1.49-3.75,10,10,0,0,0-.18-4.07,12.34,12.34,0,0,0-1.85-4,11.78,11.78,0,0,0-3.12-3.17,10.2,10.2,0,0,0-3.72-1.64,9.7,9.7,0,0,0-4,0,11.18,11.18,0,0,0-4,1.75,10.91,10.91,0,0,0-3.08,3.09,9.63,9.63,0,0,0-1.47,3.76,9.87,9.87,0,0,0,.19,4.07,12.29,12.29,0,0,0,1.85,4,12,12,0,0,0,3.09,3.18,10.06,10.06,0,0,0,3.73,1.64h0a9.56,9.56,0,0,0,4,0h0A11.26,11.26,0,0,0,237,147.36Zm-10.4-15.18h0a7.37,7.37,0,0,1,2.6-1.16,5.77,5.77,0,0,1,2.55,0,6.52,6.52,0,0,1,2.44,1.17,10.31,10.31,0,0,1,2.21,2.36,10,10,0,0,1,1.41,2.93,6.81,6.81,0,0,1,.22,2.69h0a5.69,5.69,0,0,1-.91,2.38,7.89,7.89,0,0,1-4.6,3.15h0a5.63,5.63,0,0,1-2.55,0,6.56,6.56,0,0,1-2.44-1.16,9.74,9.74,0,0,1-2.2-2.37h0a9.68,9.68,0,0,1-1.42-2.92,6.48,6.48,0,0,1-.21-2.7,5.77,5.77,0,0,1,.9-2.39A7.18,7.18,0,0,1,226.55,132.18Z" transform="translate(0 0)"/><path class="cls-13" d="M427.52,131.86h0a11.34,11.34,0,0,0,4.34.48,9.51,9.51,0,0,0,3.86-1.18,10,10,0,0,0,3.06-2.69,12.29,12.29,0,0,0,2-4,11.74,11.74,0,0,0,.53-4.42,10.37,10.37,0,0,0-1.05-3.93A9.64,9.64,0,0,0,437.7,113a11.72,11.72,0,0,0-8.2-2.49,9.85,9.85,0,0,0-3.85,1.2,10.28,10.28,0,0,0-3.06,2.69,12.44,12.44,0,0,0-2,4,12.14,12.14,0,0,0-.54,4.41,9.92,9.92,0,0,0,1.05,3.93h0a9.56,9.56,0,0,0,2.54,3.13h0A11.22,11.22,0,0,0,427.52,131.86Zm5.34-17.61h0a7.05,7.05,0,0,1,2.53,1.31,5.75,5.75,0,0,1,1.58,2,6.65,6.65,0,0,1,.61,2.63,10,10,0,0,1-.47,3.21,9.73,9.73,0,0,1-1.4,2.93,6.57,6.57,0,0,1-2,1.85h0a5.81,5.81,0,0,1-2.43.79,7.47,7.47,0,0,1-2.82-.33,7.11,7.11,0,0,1-2.51-1.3h0a5.66,5.66,0,0,1-1.59-2,6.61,6.61,0,0,1-.61-2.63,9.67,9.67,0,0,1,.46-3.2h0a9.49,9.49,0,0,1,1.39-2.93,6.52,6.52,0,0,1,2-1.86,5.81,5.81,0,0,1,2.44-.79A7.27,7.27,0,0,1,432.86,114.25Z" transform="translate(0 0)"/><path class="cls-13" d="M280.94,102.29l-.05-.68-.63.25-2,.79h0a1.42,1.42,0,0,0-.73.62,1.39,1.39,0,0,0-.19.84h0l1.25,14.41-9.46-11.19h0a1.76,1.76,0,0,0-.71-.45,1.47,1.47,0,0,0-.95.07h0l-.74.29h0a1.5,1.5,0,0,0-.73.63,1.45,1.45,0,0,0-.21.81h0l.74,14.7-9-11.42a1.32,1.32,0,0,0-.74-.49h0a1.6,1.6,0,0,0-.94.08h0l-2.13.85-.63.25.42.52,13.4,16.6.23.28.34-.13,2.3-.91.33-.13,0-.36-.85-15.72,10.1,12,.23.28.34-.13,2.3-.91.34-.14,0-.36Z" transform="translate(0 0)"/><path class="cls-13" d="M310.81,116.44l.72-.17-.42-.6-12.58-18-.19-.28-.33.08-2.71.63-.33.08-.05.34-3.28,21.67-.12.73.72-.17,2.08-.49h0a1.47,1.47,0,0,0,.8-.5h0a1.54,1.54,0,0,0,.3-.76l.68-4.87,8.23-1.93,2.78,4.07a1.55,1.55,0,0,0,.65.56,1.43,1.43,0,0,0,.94.07h0ZM298,102.84h0l4.59,6.74-6,1.39,1.12-8,.06-.4Z" transform="translate(0 0)"/><path class="cls-13" d="M333.28,92.85l0-.49-.49,0-2.41.23-.5.05.05.5,1.39,14.16L319.14,94.4h0a2.18,2.18,0,0,0-.28-.25,1.32,1.32,0,0,0-.34-.2h0a1.8,1.8,0,0,0-.35-.08,2.1,2.1,0,0,0-.36,0h0l-1.41.14-.5,0,.05.5,2,20.26.05.5.5,0,2.4-.24.5,0-.05-.49-1.4-14.23,12.15,13h0a2,2,0,0,0,.63.46h0a1.67,1.67,0,0,0,.78.09h0l1.36-.14.5,0-.05-.5Z" transform="translate(0 0)"/><path class="cls-13" d="M359.29,95.78h.5v-.5l.06-2.31v-.5h-.49L343.44,92h-.5v.5l-.06,2.32v.5l.5,0,6.1.15L349,113.06v.5h.5l2.74.08h.5v-.5l.46-17.54Z" transform="translate(0 0)"/><path class="cls-13" d="M379.9,98.82v0l.84-1.21.21-.31-.23-.29a7.75,7.75,0,0,0-2.39-2,9.07,9.07,0,0,0-3.17-1h0a7.79,7.79,0,0,0-2.91.11,6.48,6.48,0,0,0-2.3,1.06,5.68,5.68,0,0,0-1.59,1.76h0a5.72,5.72,0,0,0-.76,2.19,5.93,5.93,0,0,0,.13,2.52,5,5,0,0,0,1,1.85,6.59,6.59,0,0,0,1.53,1.29,19.19,19.19,0,0,0,1.73.93l1.7.81a6.71,6.71,0,0,1,1.36.82,2.82,2.82,0,0,1,.83,1,2.11,2.11,0,0,1,.16,1.26h0a3.4,3.4,0,0,1-.42,1.27,3,3,0,0,1-.83.9,3.1,3.1,0,0,1-1.2.49h0a5,5,0,0,1-1.6,0,5.66,5.66,0,0,1-1.26-.31,5.37,5.37,0,0,1-1-.47,5.14,5.14,0,0,1-.73-.56l-.6-.57q-.27-.27-.51-.48a1.31,1.31,0,0,0-.65-.31h0a1.07,1.07,0,0,0-.65.1,1.3,1.3,0,0,0-.45.32h0l0,0-1,1.19-.24.29.22.32a8.89,8.89,0,0,0,2.63,2.43,9.36,9.36,0,0,0,3.67,1.26,8.7,8.7,0,0,0,3.12-.11h0a6.76,6.76,0,0,0,2.49-1.14,6.41,6.41,0,0,0,1.73-2h0a7.5,7.5,0,0,0,.84-2.6h0a5.36,5.36,0,0,0-.15-2.39,5,5,0,0,0-1-1.77,6.75,6.75,0,0,0-1.52-1.28c-.56-.35-1.14-.67-1.72-1h0l-.67-.33-1-.5a8.33,8.33,0,0,1-1.36-.84,3.22,3.22,0,0,1-.84-1,1.83,1.83,0,0,1-.17-1.14h0a2.68,2.68,0,0,1,.34-1,2.35,2.35,0,0,1,.7-.74h0a2.89,2.89,0,0,1,1.07-.43,4.31,4.31,0,0,1,1.49,0,4.74,4.74,0,0,1,1.46.41,7.14,7.14,0,0,1,1,.64c.29.24.53.44.71.61a1.54,1.54,0,0,0,.79.45h0a1.08,1.08,0,0,0,.67-.11A1.62,1.62,0,0,0,379.9,98.82Z" transform="translate(0 0)"/><path class="cls-13" d="M417,107.73l.48.15.15-.48.7-2.2.15-.48-.48-.15-15.19-4.82-.48-.15-.15.48-.7,2.21-.15.48.48.15,5.82,1.84-5.31,16.73-.15.47.48.15,2.61.83.48.15.15-.47,5.31-16.73Z" transform="translate(0 0)"/><path class="cls-13" d="M471.55,133.09h0l-5.24-3.83-.41-.29-.29.4-12,16.46-.3.4.41.3,5.81,4.22h0a10.51,10.51,0,0,0,2.84,1.52,7.07,7.07,0,0,0,2.71.39,5.37,5.37,0,0,0,2.42-.72,6.19,6.19,0,0,0,1.93-1.76h0a4.75,4.75,0,0,0,1-3.52,5.68,5.68,0,0,0-1-2.39l.5,0a5.78,5.78,0,0,0,1.74-.19,5,5,0,0,0,1.48-.7h0a5.27,5.27,0,0,0,1.16-1.15h0a6.48,6.48,0,0,0,1.05-2.21,4.72,4.72,0,0,0-.06-2.36,6.84,6.84,0,0,0-1.28-2.33A12.74,12.74,0,0,0,471.55,133.09Zm-10.17,15.06h0l-3.16-2.29,3.58-4.92,3.15,2.3h0a4.74,4.74,0,0,1,2,2.44,2.57,2.57,0,0,1-.48,2.26h0a3.58,3.58,0,0,1-1,.92h0a2.39,2.39,0,0,1-1.11.39,3.28,3.28,0,0,1-1.36-.18A6.57,6.57,0,0,1,461.38,148.15Zm6.37-6.84h0a6.65,6.65,0,0,1-1.65-.92h0l-2.54-1.85,3.51-4.81,2.63,1.92h0a5.1,5.1,0,0,1,2,2.38,2.62,2.62,0,0,1-.61,2.33,2.89,2.89,0,0,1-.9.85,2.28,2.28,0,0,1-1.09.33A3.61,3.61,0,0,1,467.75,141.31Z" transform="translate(0 0)"/><path class="cls-13" d="M483.73,167.69l.34-.37-.37-.34-6.83-6.31,4-4.37,5.45,5,.37.34.34-.36,1.46-1.59.34-.36-.37-.34L483.05,154l3.9-4.23,6.83,6.3.37.34.33-.37,1.53-1.64.34-.37-.37-.34-9.21-8.51-.37-.34-.34.37-13.81,14.95-.34.37.36.34,9.22,8.51.36.33.34-.36Z" transform="translate(0 0)"/><path class="cls-13" d="M505.3,197.83l.45.59.38-.63,11.35-18.74.17-.29-.2-.27-1.68-2.23-.2-.27-.33.09-21.16,5.77-.71.2.45.59,1.28,1.69h0a1.46,1.46,0,0,0,.8.54,1.52,1.52,0,0,0,.82,0l4.74-1.35,5.09,6.75-2.6,4.19h0a1.59,1.59,0,0,0-.24.79,1.41,1.41,0,0,0,.31.91h0Zm7.23-17.24h0l-4.3,6.92-3.69-4.9,7.81-2.24a2.85,2.85,0,0,0,.39-.11Z" transform="translate(0 0)"/><path class="cls-13" d="M205.4,444.47l.62-.26-.43-.52L204.23,442h0a1.47,1.47,0,0,0-.83-.49,1.38,1.38,0,0,0-.85.08l-13.28,5.73,7.63-12.5h0a1.66,1.66,0,0,0,.2-.8h0a1.5,1.5,0,0,0-.36-.87h0l-.51-.6h0a1.49,1.49,0,0,0-.84-.51,1.73,1.73,0,0,0-.82.05h0l-13.73,5.35,8-12.12a1.3,1.3,0,0,0,.24-.85,1.53,1.53,0,0,0-.36-.89h0l-1.47-1.75-.44-.52-.37.57L174.93,439.8l-.2.31.23.28,1.59,1.9.24.28.33-.14,14.64-5.76-8.26,13.39-.19.31.23.27,1.59,1.9.24.28.34-.14Z" transform="translate(0 0)"/><path class="cls-13" d="M223.57,460.3l.33-.37-.38-.33-2.07-1.83-.37-.33-.33.38-5.66,6.44-7.5-6.59,5.66-6.44.33-.38-.38-.33-2.07-1.82-.37-.33-.33.38L197,464l-.33.38.38.33,2.07,1.82.38.33.33-.38,5.78-6.58,7.49,6.59-5.78,6.58-.33.38.38.33,2.07,1.82.37.33.33-.38Z" transform="translate(0 0)"/><path class="cls-13" d="M241.43,485.11h0a12.29,12.29,0,0,0,1.77-4.06,10.06,10.06,0,0,0,.12-4.08,9.58,9.58,0,0,0-1.54-3.73,11,11,0,0,0-3.13-3.05h0a11.16,11.16,0,0,0-4-1.69,9.76,9.76,0,0,0-4,.05,10.3,10.3,0,0,0-3.71,1.7,12.4,12.4,0,0,0-3,3.23,12.14,12.14,0,0,0-1.79,4.06,10.23,10.23,0,0,0-.11,4.08,9.73,9.73,0,0,0,1.53,3.72h0a11.06,11.06,0,0,0,3.13,3,11.33,11.33,0,0,0,4,1.7h0a9.76,9.76,0,0,0,4,0h0a10.18,10.18,0,0,0,3.7-1.7A12.43,12.43,0,0,0,241.43,485.11Zm-3.2-2.12h0a9.38,9.38,0,0,1-2.16,2.39h0a6.62,6.62,0,0,1-2.41,1.22,5.92,5.92,0,0,1-2.55,0h0a7.6,7.6,0,0,1-2.62-1.12h0a7.51,7.51,0,0,1-2-2,5.92,5.92,0,0,1-.95-2.37,6.79,6.79,0,0,1,.16-2.7,9.75,9.75,0,0,1,1.37-2.93,9.85,9.85,0,0,1,2.17-2.41,6.64,6.64,0,0,1,2.42-1.21,6,6,0,0,1,2.56-.06,7.87,7.87,0,0,1,4.65,3.08h0a5.9,5.9,0,0,1,.94,2.37,6.68,6.68,0,0,1-.18,2.71A9.41,9.41,0,0,1,238.23,483Z" transform="translate(0 0)"/><path class="cls-13" d="M289.75,495.69l.42-.53-.63-.24-2-.77a1.41,1.41,0,0,0-1,0,1.45,1.45,0,0,0-.7.48h0L277,506l.61-14.64h0a1.57,1.57,0,0,0-.22-.81,1.38,1.38,0,0,0-.74-.6h0l-.74-.29h0a1.38,1.38,0,0,0-1,0h0a1.72,1.72,0,0,0-.68.45h0l-9.4,11.32L266,487a1.34,1.34,0,0,0-.2-.87,1.54,1.54,0,0,0-.76-.6h0l-2.13-.82-.64-.24,0,.68-1.37,21.27,0,.37.34.13,2.31.89.34.13.23-.28,10-12.16-.73,15.73v.36l.33.13,2.31.88.34.14.23-.29Z" transform="translate(0 0)"/><path class="cls-13" d="M307.1,520.77l.72.16-.11-.73-3.41-21.66-.06-.34-.33-.07-2.71-.62-.33-.07-.19.27-12.47,18-.42.61.72.16,2.08.47h0a1.47,1.47,0,0,0,1-.11,1.61,1.61,0,0,0,.61-.55l2.75-4.07,8.23,1.88.72,4.88h0a1.61,1.61,0,0,0,.33.76,1.38,1.38,0,0,0,.82.5h0Zm-5.62-18.22c0,.14,0,.26,0,.38L302.7,511l-6-1.37,4.55-6.74C301.33,502.78,301.41,502.67,301.48,502.55Z" transform="translate(0 0)"/><path class="cls-13" d="M335.93,503.15l.05-.5-.5,0-2.42-.22-.5-.05-.05.5L331.15,517l-9.41-15h0a3.4,3.4,0,0,0-.23-.3h0a1.21,1.21,0,0,0-.3-.25h0a1.44,1.44,0,0,0-.3-.12h-.07a1.92,1.92,0,0,0-.34-.05l-1.4-.14-.5-.05-.05.5-2,20.26,0,.5.49,0,2.4.23.5.05.05-.5,1.37-14.23,9.42,15.07h0a1.93,1.93,0,0,0,.54.56,1.62,1.62,0,0,0,.76.24h0l1.38.13.49,0,.05-.5Z" transform="translate(0 0)"/><path class="cls-13" d="M359.19,505.79h.5l0-.51-.06-2.31v-.5h-.5l-15.94.39-.5,0v.5l.06,2.31v.5h.5l6.11-.15.43,17.54v.49h.5L353,524h.5v-.5l-.43-17.54Z" transform="translate(0 0)"/><path class="cls-13" d="M412.14,495.05l.47-.15-.14-.47-.67-2.21-.14-.48-.48.15-15.25,4.66-.48.14.15.48.67,2.22.15.47.48-.14,5.84-1.79,5.13,16.77.14.48.48-.14,2.62-.81.48-.14-.15-.48-5.13-16.77Z" transform="translate(0 0)"/><path class="cls-13" d="M437.88,503.25h0a9.89,9.89,0,0,0,2.14-3.43,10.21,10.21,0,0,0,.56-4,12.05,12.05,0,0,0-1.08-4.31A11.74,11.74,0,0,0,437,487.8a10,10,0,0,0-3.37-2.29h0a10,10,0,0,0-4-.71h0a11.78,11.78,0,0,0-7.83,3.49,9.63,9.63,0,0,0-2.13,3.43,10.21,10.21,0,0,0-.56,4,12.43,12.43,0,0,0,1.08,4.31h0a12.32,12.32,0,0,0,2.48,3.69,10.09,10.09,0,0,0,3.37,2.29h0a9.81,9.81,0,0,0,4,.7,11,11,0,0,0,4.24-1A11.19,11.19,0,0,0,437.88,503.25Zm-8.19-18ZM436,493h0a9.91,9.91,0,0,1,.86,3.12,6.71,6.71,0,0,1-.28,2.69,5.82,5.82,0,0,1-1.32,2.17h0a7,7,0,0,1-2.34,1.59h0a7.12,7.12,0,0,1-2.74.66h0a5.73,5.73,0,0,1-2.51-.47h0a6.62,6.62,0,0,1-2.19-1.59,10.88,10.88,0,0,1-2.6-5.85,6.76,6.76,0,0,1,.28-2.7h0a5.68,5.68,0,0,1,1.33-2.18,7.09,7.09,0,0,1,2.33-1.6h0a7.26,7.26,0,0,1,2.77-.66,5.7,5.7,0,0,1,2.5.49,6.59,6.59,0,0,1,2.18,1.59h0A10.09,10.09,0,0,1,436,493Z" transform="translate(0 0)"/><path class="cls-13" d="M458.1,467.59h0l-5.32,3.73-.41.29.29.41,11.68,16.68.28.41.41-.29,5.89-4.12h0a11.13,11.13,0,0,0,2.36-2.19,6.93,6.93,0,0,0,1.24-2.45,5.51,5.51,0,0,0,.1-2.52h0a6.43,6.43,0,0,0-1-2.4,4.78,4.78,0,0,0-3-2.07,5.58,5.58,0,0,0-2.58.14,4.43,4.43,0,0,0,.2-.45,5.35,5.35,0,0,0,.39-1.71,4.64,4.64,0,0,0-.18-1.62,5,5,0,0,0-.7-1.46h0a6.44,6.44,0,0,0-1.75-1.71h0a4.59,4.59,0,0,0-2.25-.71,6.67,6.67,0,0,0-2.63.44h0A13.1,13.1,0,0,0,458.1,467.59Zm6.73,2.78h0a3.1,3.1,0,0,1,.52,1.13,2.33,2.33,0,0,1-.05,1.14,3.35,3.35,0,0,1-.66,1.22,6.65,6.65,0,0,1-1.41,1.28h0l-2.56,1.79-3.42-4.87,2.66-1.87h0a5,5,0,0,1,2.92-1.15A2.62,2.62,0,0,1,464.83,470.37Zm5.62,10.45h0a6.87,6.87,0,0,1-1.4,1.28h0l-3.18,2.23-3.49-5,3.19-2.23h0a4.73,4.73,0,0,1,3-1.09h0a2.53,2.53,0,0,1,2,1.18,4.09,4.09,0,0,1,.57,1.2,2.48,2.48,0,0,1,0,1.18A3.17,3.17,0,0,1,470.45,480.82Z" transform="translate(0 0)"/><path class="cls-13" d="M493.45,462.89l-.33-.38-.38.34-7,6.15-3.93-4.46,5.56-4.91.38-.33-.33-.38L486,457.3l-.33-.37-.38.33-5.56,4.91-3.82-4.32,7-6.15.37-.33-.33-.37-1.48-1.68-.33-.38-.38.33-9.4,8.31-.37.33.33.37,13.47,15.27.33.37.38-.33,9.4-8.31.37-.32-.33-.38Z" transform="translate(0 0)"/><path class="cls-13" d="M521.61,435.16l.47-.57-.71-.22-21-6.36-.32-.09-.21.26-1.74,2.18-.21.26.17.3L508.88,450l.36.65.46-.58,1.34-1.66h0a1.45,1.45,0,0,0,.32-.9h0a1.52,1.52,0,0,0-.22-.77l-2.47-4.25,5.28-6.6,4.7,1.48h0a1.62,1.62,0,0,0,.82,0,1.39,1.39,0,0,0,.8-.52h0Zm-14.56,4.51-4.09-7h0l-.2-.34.35.12h0l7.78,2.46Z" transform="translate(0 0)"/><path class="cls-13" d="M378.07,504.33h0v0l.5-1.39.12-.35-.29-.22A7.65,7.65,0,0,0,375.6,501a9.11,9.11,0,0,0-3.32-.18h0a7.74,7.74,0,0,0-2.78.84,6.56,6.56,0,0,0-2,1.61,5.94,5.94,0,0,0-1.09,2.1h0a6.08,6.08,0,0,0-.18,2.32,6.17,6.17,0,0,0,.76,2.4,5.14,5.14,0,0,0,1.42,1.54,6.16,6.16,0,0,0,1.81.86,17.74,17.74,0,0,0,1.91.47l1.85.35a6.81,6.81,0,0,1,1.52.45,2.87,2.87,0,0,1,1.05.73,2.11,2.11,0,0,1,.47,1.17h0A3.3,3.3,0,0,1,377,517a3,3,0,0,1-.57,1.07,3.08,3.08,0,0,1-1,.78h0a4.92,4.92,0,0,1-1.54.43,6.21,6.21,0,0,1-1.29,0,4.84,4.84,0,0,1-1.06-.21,5.57,5.57,0,0,1-.84-.36c-.27-.14-.51-.27-.72-.4s-.43-.24-.62-.33a1.33,1.33,0,0,0-.71-.14h0a1.19,1.19,0,0,0-.6.26,1.52,1.52,0,0,0-.36.42v.05l-.64,1.39-.16.35.3.24a8.84,8.84,0,0,0,3.16,1.69,9.37,9.37,0,0,0,3.87.29,8.38,8.38,0,0,0,3-.9h0a6.83,6.83,0,0,0,2.12-1.74,6.32,6.32,0,0,0,1.16-2.37h0a7.55,7.55,0,0,0,.16-2.73h0a5.39,5.39,0,0,0-.75-2.28,5.17,5.17,0,0,0-1.41-1.46,6.76,6.76,0,0,0-1.8-.85c-.63-.2-1.27-.36-1.91-.5h0l-.74-.15-1.11-.23a8.73,8.73,0,0,1-1.54-.47,3.22,3.22,0,0,1-1-.7,1.83,1.83,0,0,1-.45-1.07h0a2.48,2.48,0,0,1,.08-1.06,2.27,2.27,0,0,1,.48-.89h0a2.75,2.75,0,0,1,.93-.69,4.42,4.42,0,0,1,1.43-.39,4.65,4.65,0,0,1,1.51,0,7.74,7.74,0,0,1,1.14.36c.35.16.62.3.84.42a1.47,1.47,0,0,0,.89.23h0a1.13,1.13,0,0,0,.62-.28A1.54,1.54,0,0,0,378.07,504.33Z" transform="translate(0 0)"/><circle class="cls-12" cx="345.82" cy="307.67" r="155.86"/></svg>